mtllib ldg-blockout.mtl
o standard_garage_condo_floor
usemtl shell
v 0.0000 0.0000 0.0000
v 28.0000 0.0000 0.0000
v 28.0000 30.0000 0.0000
v 0.0000 30.0000 0.0000
v 0.0000 0.0000 0.2500
v 28.0000 0.0000 0.2500
v 28.0000 30.0000 0.2500
v 0.0000 30.0000 0.2500
f 1 4 3 2
f 5 6 7 8
f 1 2 6 5
f 2 3 7 6
f 3 4 8 7
f 4 1 5 8
o standard_garage_condo_left_wall
usemtl shell
v 0.0000 0.0000 0.0000
v 0.5000 0.0000 0.0000
v 0.5000 30.0000 0.0000
v 0.0000 30.0000 0.0000
v 0.0000 0.0000 22.0000
v 0.5000 0.0000 22.0000
v 0.5000 30.0000 22.0000
v 0.0000 30.0000 22.0000
f 9 12 11 10
f 13 14 15 16
f 9 10 14 13
f 10 11 15 14
f 11 12 16 15
f 12 9 13 16
o standard_garage_condo_right_wall
usemtl shell
v 27.5000 0.0000 0.0000
v 28.0000 0.0000 0.0000
v 28.0000 30.0000 0.0000
v 27.5000 30.0000 0.0000
v 27.5000 0.0000 22.0000
v 28.0000 0.0000 22.0000
v 28.0000 30.0000 22.0000
v 27.5000 30.0000 22.0000
f 17 20 19 18
f 21 22 23 24
f 17 18 22 21
f 18 19 23 22
f 19 20 24 23
f 20 17 21 24
o standard_garage_condo_back_wall
usemtl shell
v 0.0000 29.5000 0.0000
v 28.0000 29.5000 0.0000
v 28.0000 30.0000 0.0000
v 0.0000 30.0000 0.0000
v 0.0000 29.5000 22.0000
v 28.0000 29.5000 22.0000
v 28.0000 30.0000 22.0000
v 0.0000 30.0000 22.0000
f 25 28 27 26
f 29 30 31 32
f 25 26 30 29
f 26 27 31 30
f 27 28 32 31
f 28 25 29 32
o standard_garage_condo_front_above_14ft
usemtl shell
v 0.0000 0.0000 14.0000
v 28.0000 0.0000 14.0000
v 28.0000 0.5000 14.0000
v 0.0000 0.5000 14.0000
v 0.0000 0.0000 22.0000
v 28.0000 0.0000 22.0000
v 28.0000 0.5000 22.0000
v 0.0000 0.5000 22.0000
f 33 36 35 34
f 37 38 39 40
f 33 34 38 37
f 34 35 39 38
f 35 36 40 39
f 36 33 37 40
o standard_garage_condo_OPTION_mezzanine_16ft
usemtl optional_mezzanine
v 0.0000 14.0000 12.0000
v 28.0000 14.0000 12.0000
v 28.0000 29.5000 12.0000
v 0.0000 29.5000 12.0000
v 0.0000 14.0000 12.5000
v 28.0000 14.0000 12.5000
v 28.0000 29.5000 12.5000
v 0.0000 29.5000 12.5000
f 41 44 43 42
f 45 46 47 48
f 41 42 46 45
f 42 43 47 46
f 43 44 48 47
f 44 41 45 48
o standard_garage_condo_OPTION_extension_to_28ft
usemtl optional_extension
v 0.0000 2.0000 12.0000
v 28.0000 2.0000 12.0000
v 28.0000 14.0000 12.0000
v 0.0000 14.0000 12.0000
v 0.0000 2.0000 12.5000
v 28.0000 2.0000 12.5000
v 28.0000 14.0000 12.5000
v 0.0000 14.0000 12.5000
f 49 52 51 50
f 53 54 55 56
f 49 50 54 53
f 50 51 55 54
f 51 52 56 55
f 52 49 53 56
o premier_garage_condo_floor
usemtl shell
v 46.0000 0.0000 0.0000
v 66.0000 0.0000 0.0000
v 66.0000 45.0000 0.0000
v 46.0000 45.0000 0.0000
v 46.0000 0.0000 0.2500
v 66.0000 0.0000 0.2500
v 66.0000 45.0000 0.2500
v 46.0000 45.0000 0.2500
f 57 60 59 58
f 61 62 63 64
f 57 58 62 61
f 58 59 63 62
f 59 60 64 63
f 60 57 61 64
o premier_garage_condo_left_wall
usemtl shell
v 46.0000 0.0000 0.0000
v 46.5000 0.0000 0.0000
v 46.5000 45.0000 0.0000
v 46.0000 45.0000 0.0000
v 46.0000 0.0000 22.0000
v 46.5000 0.0000 22.0000
v 46.5000 45.0000 22.0000
v 46.0000 45.0000 22.0000
f 65 68 67 66
f 69 70 71 72
f 65 66 70 69
f 66 67 71 70
f 67 68 72 71
f 68 65 69 72
o premier_garage_condo_right_wall
usemtl shell
v 65.5000 0.0000 0.0000
v 66.0000 0.0000 0.0000
v 66.0000 45.0000 0.0000
v 65.5000 45.0000 0.0000
v 65.5000 0.0000 22.0000
v 66.0000 0.0000 22.0000
v 66.0000 45.0000 22.0000
v 65.5000 45.0000 22.0000
f 73 76 75 74
f 77 78 79 80
f 73 74 78 77
f 74 75 79 78
f 75 76 80 79
f 76 73 77 80
o premier_garage_condo_back_wall
usemtl shell
v 46.0000 44.5000 0.0000
v 66.0000 44.5000 0.0000
v 66.0000 45.0000 0.0000
v 46.0000 45.0000 0.0000
v 46.0000 44.5000 22.0000
v 66.0000 44.5000 22.0000
v 66.0000 45.0000 22.0000
v 46.0000 45.0000 22.0000
f 81 84 83 82
f 85 86 87 88
f 81 82 86 85
f 82 83 87 86
f 83 84 88 87
f 84 81 85 88
o premier_garage_condo_front_above_14ft
usemtl shell
v 46.0000 0.0000 14.0000
v 66.0000 0.0000 14.0000
v 66.0000 0.5000 14.0000
v 46.0000 0.5000 14.0000
v 46.0000 0.0000 22.0000
v 66.0000 0.0000 22.0000
v 66.0000 0.5000 22.0000
v 46.0000 0.5000 22.0000
f 89 92 91 90
f 93 94 95 96
f 89 90 94 93
f 90 91 95 94
f 91 92 96 95
f 92 89 93 96
o premier_garage_condo_OPTION_mezzanine_16ft
usemtl optional_mezzanine
v 46.0000 29.0000 12.0000
v 66.0000 29.0000 12.0000
v 66.0000 44.5000 12.0000
v 46.0000 44.5000 12.0000
v 46.0000 29.0000 12.5000
v 66.0000 29.0000 12.5000
v 66.0000 44.5000 12.5000
v 46.0000 44.5000 12.5000
f 97 100 99 98
f 101 102 103 104
f 97 98 102 101
f 98 99 103 102
f 99 100 104 103
f 100 97 101 104
o premier_garage_condo_OPTION_extension_to_28ft
usemtl optional_extension
v 46.0000 17.0000 12.0000
v 66.0000 17.0000 12.0000
v 66.0000 29.0000 12.0000
v 46.0000 29.0000 12.0000
v 46.0000 17.0000 12.5000
v 66.0000 17.0000 12.5000
v 66.0000 29.0000 12.5000
v 46.0000 29.0000 12.5000
f 105 108 107 106
f 109 110 111 112
f 105 106 110 109
f 106 107 111 110
f 107 108 112 111
f 108 105 109 112
o deluxe_garage_condo_floor
usemtl shell
v 84.0000 0.0000 0.0000
v 112.0000 0.0000 0.0000
v 112.0000 50.0000 0.0000
v 84.0000 50.0000 0.0000
v 84.0000 0.0000 0.2500
v 112.0000 0.0000 0.2500
v 112.0000 50.0000 0.2500
v 84.0000 50.0000 0.2500
f 113 116 115 114
f 117 118 119 120
f 113 114 118 117
f 114 115 119 118
f 115 116 120 119
f 116 113 117 120
o deluxe_garage_condo_left_wall
usemtl shell
v 84.0000 0.0000 0.0000
v 84.5000 0.0000 0.0000
v 84.5000 50.0000 0.0000
v 84.0000 50.0000 0.0000
v 84.0000 0.0000 22.0000
v 84.5000 0.0000 22.0000
v 84.5000 50.0000 22.0000
v 84.0000 50.0000 22.0000
f 121 124 123 122
f 125 126 127 128
f 121 122 126 125
f 122 123 127 126
f 123 124 128 127
f 124 121 125 128
o deluxe_garage_condo_right_wall
usemtl shell
v 111.5000 0.0000 0.0000
v 112.0000 0.0000 0.0000
v 112.0000 50.0000 0.0000
v 111.5000 50.0000 0.0000
v 111.5000 0.0000 22.0000
v 112.0000 0.0000 22.0000
v 112.0000 50.0000 22.0000
v 111.5000 50.0000 22.0000
f 129 132 131 130
f 133 134 135 136
f 129 130 134 133
f 130 131 135 134
f 131 132 136 135
f 132 129 133 136
o deluxe_garage_condo_back_wall
usemtl shell
v 84.0000 49.5000 0.0000
v 112.0000 49.5000 0.0000
v 112.0000 50.0000 0.0000
v 84.0000 50.0000 0.0000
v 84.0000 49.5000 22.0000
v 112.0000 49.5000 22.0000
v 112.0000 50.0000 22.0000
v 84.0000 50.0000 22.0000
f 137 140 139 138
f 141 142 143 144
f 137 138 142 141
f 138 139 143 142
f 139 140 144 143
f 140 137 141 144
o deluxe_garage_condo_front_above_14ft
usemtl shell
v 84.0000 0.0000 14.0000
v 112.0000 0.0000 14.0000
v 112.0000 0.5000 14.0000
v 84.0000 0.5000 14.0000
v 84.0000 0.0000 22.0000
v 112.0000 0.0000 22.0000
v 112.0000 0.5000 22.0000
v 84.0000 0.5000 22.0000
f 145 148 147 146
f 149 150 151 152
f 145 146 150 149
f 146 147 151 150
f 147 148 152 151
f 148 145 149 152
o deluxe_garage_condo_OPTION_mezzanine_16ft
usemtl optional_mezzanine
v 84.0000 34.0000 12.0000
v 112.0000 34.0000 12.0000
v 112.0000 49.5000 12.0000
v 84.0000 49.5000 12.0000
v 84.0000 34.0000 12.5000
v 112.0000 34.0000 12.5000
v 112.0000 49.5000 12.5000
v 84.0000 49.5000 12.5000
f 153 156 155 154
f 157 158 159 160
f 153 154 158 157
f 154 155 159 158
f 155 156 160 159
f 156 153 157 160
o deluxe_garage_condo_OPTION_extension_to_28ft
usemtl optional_extension
v 84.0000 22.0000 12.0000
v 112.0000 22.0000 12.0000
v 112.0000 34.0000 12.0000
v 84.0000 34.0000 12.0000
v 84.0000 22.0000 12.5000
v 112.0000 22.0000 12.5000
v 112.0000 34.0000 12.5000
v 84.0000 34.0000 12.5000
f 161 164 163 162
f 165 166 167 168
f 161 162 166 165
f 162 163 167 166
f 163 164 168 167
f 164 161 165 168
o signature_garage_condo_floor
usemtl shell
v 130.0000 0.0000 0.0000
v 158.0000 0.0000 0.0000
v 158.0000 60.0000 0.0000
v 130.0000 60.0000 0.0000
v 130.0000 0.0000 0.2500
v 158.0000 0.0000 0.2500
v 158.0000 60.0000 0.2500
v 130.0000 60.0000 0.2500
f 169 172 171 170
f 173 174 175 176
f 169 170 174 173
f 170 171 175 174
f 171 172 176 175
f 172 169 173 176
o signature_garage_condo_left_wall
usemtl shell
v 130.0000 0.0000 0.0000
v 130.5000 0.0000 0.0000
v 130.5000 60.0000 0.0000
v 130.0000 60.0000 0.0000
v 130.0000 0.0000 22.0000
v 130.5000 0.0000 22.0000
v 130.5000 60.0000 22.0000
v 130.0000 60.0000 22.0000
f 177 180 179 178
f 181 182 183 184
f 177 178 182 181
f 178 179 183 182
f 179 180 184 183
f 180 177 181 184
o signature_garage_condo_right_wall
usemtl shell
v 157.5000 0.0000 0.0000
v 158.0000 0.0000 0.0000
v 158.0000 60.0000 0.0000
v 157.5000 60.0000 0.0000
v 157.5000 0.0000 22.0000
v 158.0000 0.0000 22.0000
v 158.0000 60.0000 22.0000
v 157.5000 60.0000 22.0000
f 185 188 187 186
f 189 190 191 192
f 185 186 190 189
f 186 187 191 190
f 187 188 192 191
f 188 185 189 192
o signature_garage_condo_back_wall
usemtl shell
v 130.0000 59.5000 0.0000
v 158.0000 59.5000 0.0000
v 158.0000 60.0000 0.0000
v 130.0000 60.0000 0.0000
v 130.0000 59.5000 22.0000
v 158.0000 59.5000 22.0000
v 158.0000 60.0000 22.0000
v 130.0000 60.0000 22.0000
f 193 196 195 194
f 197 198 199 200
f 193 194 198 197
f 194 195 199 198
f 195 196 200 199
f 196 193 197 200
o signature_garage_condo_front_above_14ft
usemtl shell
v 130.0000 0.0000 14.0000
v 158.0000 0.0000 14.0000
v 158.0000 0.5000 14.0000
v 130.0000 0.5000 14.0000
v 130.0000 0.0000 22.0000
v 158.0000 0.0000 22.0000
v 158.0000 0.5000 22.0000
v 130.0000 0.5000 22.0000
f 201 204 203 202
f 205 206 207 208
f 201 202 206 205
f 202 203 207 206
f 203 204 208 207
f 204 201 205 208
o signature_garage_condo_OPTION_mezzanine_16ft
usemtl optional_mezzanine
v 130.0000 44.0000 12.0000
v 158.0000 44.0000 12.0000
v 158.0000 59.5000 12.0000
v 130.0000 59.5000 12.0000
v 130.0000 44.0000 12.5000
v 158.0000 44.0000 12.5000
v 158.0000 59.5000 12.5000
v 130.0000 59.5000 12.5000
f 209 212 211 210
f 213 214 215 216
f 209 210 214 213
f 210 211 215 214
f 211 212 216 215
f 212 209 213 216
o signature_garage_condo_OPTION_extension_to_28ft
usemtl optional_extension
v 130.0000 32.0000 12.0000
v 158.0000 32.0000 12.0000
v 158.0000 44.0000 12.0000
v 130.0000 44.0000 12.0000
v 130.0000 32.0000 12.5000
v 158.0000 32.0000 12.5000
v 158.0000 44.0000 12.5000
v 130.0000 44.0000 12.5000
f 217 220 219 218
f 221 222 223 224
f 217 218 222 221
f 218 219 223 222
f 219 220 224 223
f 220 217 221 224
