mtllib ldg-blockout.mtl
o site_pad
usemtl ground
v -186.1538 431.5385 0.0000
v -120.0000 454.6154 0.0000
v -18.4615 400.7692 0.0000
v 89.2308 376.1538 0.0000
v 147.6923 337.6923 0.0000
v 147.6923 -170.0000 0.0000
v 113.8462 -190.0000 0.0000
v 113.8462 -371.5385 0.0000
v 136.9231 -431.5385 0.0000
v 75.3846 -510.0000 0.0000
v -95.3846 -520.7692 0.0000
v -189.2308 -500.7692 0.0000
v -218.4615 -434.6154 0.0000
v -186.1538 -371.5385 0.0000
f 1 2 3 4 5 6 7 8 9 10 11 12 13 14
o unit_01_signature
usemtl signature
v -60.0000 0.0000 0.0000
v 0.0000 0.0000 0.0000
v 0.0000 28.0000 0.0000
v -60.0000 28.0000 0.0000
v -60.0000 0.0000 22.0000
v 0.0000 0.0000 22.0000
v 0.0000 28.0000 22.0000
v -60.0000 28.0000 22.0000
f 15 18 17 16
f 19 20 21 22
f 15 16 20 19
f 16 17 21 20
f 17 18 22 21
f 18 15 19 22
o unit_02_signature
usemtl signature
v -60.0000 28.0000 0.0000
v 0.0000 28.0000 0.0000
v 0.0000 56.0000 0.0000
v -60.0000 56.0000 0.0000
v -60.0000 28.0000 22.0000
v 0.0000 28.0000 22.0000
v 0.0000 56.0000 22.0000
v -60.0000 56.0000 22.0000
f 23 26 25 24
f 27 28 29 30
f 23 24 28 27
f 24 25 29 28
f 25 26 30 29
f 26 23 27 30
o unit_03_signature
usemtl signature
v -60.0000 56.0000 0.0000
v 0.0000 56.0000 0.0000
v 0.0000 84.0000 0.0000
v -60.0000 84.0000 0.0000
v -60.0000 56.0000 22.0000
v 0.0000 56.0000 22.0000
v 0.0000 84.0000 22.0000
v -60.0000 84.0000 22.0000
f 31 34 33 32
f 35 36 37 38
f 31 32 36 35
f 32 33 37 36
f 33 34 38 37
f 34 31 35 38
o unit_04_signature
usemtl signature
v -60.0000 84.0000 0.0000
v 0.0000 84.0000 0.0000
v 0.0000 112.0000 0.0000
v -60.0000 112.0000 0.0000
v -60.0000 84.0000 22.0000
v 0.0000 84.0000 22.0000
v 0.0000 112.0000 22.0000
v -60.0000 112.0000 22.0000
f 39 42 41 40
f 43 44 45 46
f 39 40 44 43
f 40 41 45 44
f 41 42 46 45
f 42 39 43 46
o unit_05_signature
usemtl signature
v -60.0000 112.0000 0.0000
v 0.0000 112.0000 0.0000
v 0.0000 140.0000 0.0000
v -60.0000 140.0000 0.0000
v -60.0000 112.0000 22.0000
v 0.0000 112.0000 22.0000
v 0.0000 140.0000 22.0000
v -60.0000 140.0000 22.0000
f 47 50 49 48
f 51 52 53 54
f 47 48 52 51
f 48 49 53 52
f 49 50 54 53
f 50 47 51 54
o unit_06_signature
usemtl signature
v -60.0000 140.0000 0.0000
v 0.0000 140.0000 0.0000
v 0.0000 168.0000 0.0000
v -60.0000 168.0000 0.0000
v -60.0000 140.0000 22.0000
v 0.0000 140.0000 22.0000
v 0.0000 168.0000 22.0000
v -60.0000 168.0000 22.0000
f 55 58 57 56
f 59 60 61 62
f 55 56 60 59
f 56 57 61 60
f 57 58 62 61
f 58 55 59 62
o unit_07_signature
usemtl signature
v -60.0000 168.0000 0.0000
v 0.0000 168.0000 0.0000
v 0.0000 196.0000 0.0000
v -60.0000 196.0000 0.0000
v -60.0000 168.0000 22.0000
v 0.0000 168.0000 22.0000
v 0.0000 196.0000 22.0000
v -60.0000 196.0000 22.0000
f 63 66 65 64
f 67 68 69 70
f 63 64 68 67
f 64 65 69 68
f 65 66 70 69
f 66 63 67 70
o unit_08_signature
usemtl signature
v -60.0000 196.0000 0.0000
v 0.0000 196.0000 0.0000
v 0.0000 224.0000 0.0000
v -60.0000 224.0000 0.0000
v -60.0000 196.0000 22.0000
v 0.0000 196.0000 22.0000
v 0.0000 224.0000 22.0000
v -60.0000 224.0000 22.0000
f 71 74 73 72
f 75 76 77 78
f 71 72 76 75
f 72 73 77 76
f 73 74 78 77
f 74 71 75 78
o unit_09_signature
usemtl signature
v -60.0000 224.0000 0.0000
v 0.0000 224.0000 0.0000
v 0.0000 252.0000 0.0000
v -60.0000 252.0000 0.0000
v -60.0000 224.0000 22.0000
v 0.0000 224.0000 22.0000
v 0.0000 252.0000 22.0000
v -60.0000 252.0000 22.0000
f 79 82 81 80
f 83 84 85 86
f 79 80 84 83
f 80 81 85 84
f 81 82 86 85
f 82 79 83 86
o unit_10_signature
usemtl signature
v -60.0000 252.0000 0.0000
v 0.0000 252.0000 0.0000
v 0.0000 280.0000 0.0000
v -60.0000 280.0000 0.0000
v -60.0000 252.0000 22.0000
v 0.0000 252.0000 22.0000
v 0.0000 280.0000 22.0000
v -60.0000 280.0000 22.0000
f 87 90 89 88
f 91 92 93 94
f 87 88 92 91
f 88 89 93 92
f 89 90 94 93
f 90 87 91 94
o unit_11_signature
usemtl signature
v -60.0000 280.0000 0.0000
v 0.0000 280.0000 0.0000
v 0.0000 308.0000 0.0000
v -60.0000 308.0000 0.0000
v -60.0000 280.0000 22.0000
v 0.0000 280.0000 22.0000
v 0.0000 308.0000 22.0000
v -60.0000 308.0000 22.0000
f 95 98 97 96
f 99 100 101 102
f 95 96 100 99
f 96 97 101 100
f 97 98 102 101
f 98 95 99 102
o unit_12_signature
usemtl signature
v -60.0000 308.0000 0.0000
v 0.0000 308.0000 0.0000
v 0.0000 336.0000 0.0000
v -60.0000 336.0000 0.0000
v -60.0000 308.0000 22.0000
v 0.0000 308.0000 22.0000
v 0.0000 336.0000 22.0000
v -60.0000 336.0000 22.0000
f 103 106 105 104
f 107 108 109 110
f 103 104 108 107
f 104 105 109 108
f 105 106 110 109
f 106 103 107 110
o unit_13_signature
usemtl signature
v -60.0000 336.0000 0.0000
v 0.0000 336.0000 0.0000
v 0.0000 364.0000 0.0000
v -60.0000 364.0000 0.0000
v -60.0000 336.0000 22.0000
v 0.0000 336.0000 22.0000
v 0.0000 364.0000 22.0000
v -60.0000 364.0000 22.0000
f 111 114 113 112
f 115 116 117 118
f 111 112 116 115
f 112 113 117 116
f 113 114 118 117
f 114 111 115 118
o unit_14_deluxe
usemtl deluxe
v 0.0000 308.0000 0.0000
v 50.0000 308.0000 0.0000
v 50.0000 336.0000 0.0000
v 0.0000 336.0000 0.0000
v 0.0000 308.0000 22.0000
v 50.0000 308.0000 22.0000
v 50.0000 336.0000 22.0000
v 0.0000 336.0000 22.0000
f 119 122 121 120
f 123 124 125 126
f 119 120 124 123
f 120 121 125 124
f 121 122 126 125
f 122 119 123 126
o unit_15_deluxe
usemtl deluxe
v 0.0000 280.0000 0.0000
v 50.0000 280.0000 0.0000
v 50.0000 308.0000 0.0000
v 0.0000 308.0000 0.0000
v 0.0000 280.0000 22.0000
v 50.0000 280.0000 22.0000
v 50.0000 308.0000 22.0000
v 0.0000 308.0000 22.0000
f 127 130 129 128
f 131 132 133 134
f 127 128 132 131
f 128 129 133 132
f 129 130 134 133
f 130 127 131 134
o unit_16_deluxe
usemtl deluxe
v 0.0000 252.0000 0.0000
v 50.0000 252.0000 0.0000
v 50.0000 280.0000 0.0000
v 0.0000 280.0000 0.0000
v 0.0000 252.0000 22.0000
v 50.0000 252.0000 22.0000
v 50.0000 280.0000 22.0000
v 0.0000 280.0000 22.0000
f 135 138 137 136
f 139 140 141 142
f 135 136 140 139
f 136 137 141 140
f 137 138 142 141
f 138 135 139 142
o unit_17_deluxe
usemtl deluxe
v 0.0000 224.0000 0.0000
v 50.0000 224.0000 0.0000
v 50.0000 252.0000 0.0000
v 0.0000 252.0000 0.0000
v 0.0000 224.0000 22.0000
v 50.0000 224.0000 22.0000
v 50.0000 252.0000 22.0000
v 0.0000 252.0000 22.0000
f 143 146 145 144
f 147 148 149 150
f 143 144 148 147
f 144 145 149 148
f 145 146 150 149
f 146 143 147 150
o unit_18_deluxe
usemtl deluxe
v 0.0000 196.0000 0.0000
v 50.0000 196.0000 0.0000
v 50.0000 224.0000 0.0000
v 0.0000 224.0000 0.0000
v 0.0000 196.0000 22.0000
v 50.0000 196.0000 22.0000
v 50.0000 224.0000 22.0000
v 0.0000 224.0000 22.0000
f 151 154 153 152
f 155 156 157 158
f 151 152 156 155
f 152 153 157 156
f 153 154 158 157
f 154 151 155 158
o unit_19_deluxe
usemtl deluxe
v 0.0000 168.0000 0.0000
v 50.0000 168.0000 0.0000
v 50.0000 196.0000 0.0000
v 0.0000 196.0000 0.0000
v 0.0000 168.0000 22.0000
v 50.0000 168.0000 22.0000
v 50.0000 196.0000 22.0000
v 0.0000 196.0000 22.0000
f 159 162 161 160
f 163 164 165 166
f 159 160 164 163
f 160 161 165 164
f 161 162 166 165
f 162 159 163 166
o unit_20_deluxe
usemtl deluxe
v 0.0000 140.0000 0.0000
v 50.0000 140.0000 0.0000
v 50.0000 168.0000 0.0000
v 0.0000 168.0000 0.0000
v 0.0000 140.0000 22.0000
v 50.0000 140.0000 22.0000
v 50.0000 168.0000 22.0000
v 0.0000 168.0000 22.0000
f 167 170 169 168
f 171 172 173 174
f 167 168 172 171
f 168 169 173 172
f 169 170 174 173
f 170 167 171 174
o unit_21_deluxe
usemtl deluxe
v 0.0000 112.0000 0.0000
v 50.0000 112.0000 0.0000
v 50.0000 140.0000 0.0000
v 0.0000 140.0000 0.0000
v 0.0000 112.0000 22.0000
v 50.0000 112.0000 22.0000
v 50.0000 140.0000 22.0000
v 0.0000 140.0000 22.0000
f 175 178 177 176
f 179 180 181 182
f 175 176 180 179
f 176 177 181 180
f 177 178 182 181
f 178 175 179 182
o unit_22_deluxe
usemtl deluxe
v 0.0000 84.0000 0.0000
v 50.0000 84.0000 0.0000
v 50.0000 112.0000 0.0000
v 0.0000 112.0000 0.0000
v 0.0000 84.0000 22.0000
v 50.0000 84.0000 22.0000
v 50.0000 112.0000 22.0000
v 0.0000 112.0000 22.0000
f 183 186 185 184
f 187 188 189 190
f 183 184 188 187
f 184 185 189 188
f 185 186 190 189
f 186 183 187 190
o unit_23_deluxe
usemtl deluxe
v 0.0000 56.0000 0.0000
v 50.0000 56.0000 0.0000
v 50.0000 84.0000 0.0000
v 0.0000 84.0000 0.0000
v 0.0000 56.0000 22.0000
v 50.0000 56.0000 22.0000
v 50.0000 84.0000 22.0000
v 0.0000 84.0000 22.0000
f 191 194 193 192
f 195 196 197 198
f 191 192 196 195
f 192 193 197 196
f 193 194 198 197
f 194 191 195 198
o unit_24_deluxe
usemtl deluxe
v 0.0000 28.0000 0.0000
v 50.0000 28.0000 0.0000
v 50.0000 56.0000 0.0000
v 0.0000 56.0000 0.0000
v 0.0000 28.0000 22.0000
v 50.0000 28.0000 22.0000
v 50.0000 56.0000 22.0000
v 0.0000 56.0000 22.0000
f 199 202 201 200
f 203 204 205 206
f 199 200 204 203
f 200 201 205 204
f 201 202 206 205
f 202 199 203 206
o unit_25_deluxe
usemtl deluxe
v 0.0000 0.0000 0.0000
v 50.0000 0.0000 0.0000
v 50.0000 28.0000 0.0000
v 0.0000 28.0000 0.0000
v 0.0000 0.0000 22.0000
v 50.0000 0.0000 22.0000
v 50.0000 28.0000 22.0000
v 0.0000 28.0000 22.0000
f 207 210 209 208
f 211 212 213 214
f 207 208 212 211
f 208 209 213 212
f 209 210 214 213
f 210 207 211 214
o unit_26_premier
usemtl premier
v -171.1538 -344.6154 0.0000
v -126.1538 -344.6154 0.0000
v -126.1538 -324.6154 0.0000
v -171.1538 -324.6154 0.0000
v -171.1538 -344.6154 22.0000
v -126.1538 -344.6154 22.0000
v -126.1538 -324.6154 22.0000
v -171.1538 -324.6154 22.0000
f 215 218 217 216
f 219 220 221 222
f 215 216 220 219
f 216 217 221 220
f 217 218 222 221
f 218 215 219 222
o unit_27_premier
usemtl premier
v -171.1538 -324.6154 0.0000
v -126.1538 -324.6154 0.0000
v -126.1538 -304.6154 0.0000
v -171.1538 -304.6154 0.0000
v -171.1538 -324.6154 22.0000
v -126.1538 -324.6154 22.0000
v -126.1538 -304.6154 22.0000
v -171.1538 -304.6154 22.0000
f 223 226 225 224
f 227 228 229 230
f 223 224 228 227
f 224 225 229 228
f 225 226 230 229
f 226 223 227 230
o unit_28_premier
usemtl premier
v -171.1538 -304.6154 0.0000
v -126.1538 -304.6154 0.0000
v -126.1538 -284.6154 0.0000
v -171.1538 -284.6154 0.0000
v -171.1538 -304.6154 22.0000
v -126.1538 -304.6154 22.0000
v -126.1538 -284.6154 22.0000
v -171.1538 -284.6154 22.0000
f 231 234 233 232
f 235 236 237 238
f 231 232 236 235
f 232 233 237 236
f 233 234 238 237
f 234 231 235 238
o unit_29_premier
usemtl premier
v -171.1538 -284.6154 0.0000
v -126.1538 -284.6154 0.0000
v -126.1538 -264.6154 0.0000
v -171.1538 -264.6154 0.0000
v -171.1538 -284.6154 22.0000
v -126.1538 -284.6154 22.0000
v -126.1538 -264.6154 22.0000
v -171.1538 -264.6154 22.0000
f 239 242 241 240
f 243 244 245 246
f 239 240 244 243
f 240 241 245 244
f 241 242 246 245
f 242 239 243 246
o unit_30_premier
usemtl premier
v -171.1538 -264.6154 0.0000
v -126.1538 -264.6154 0.0000
v -126.1538 -244.6154 0.0000
v -171.1538 -244.6154 0.0000
v -171.1538 -264.6154 22.0000
v -126.1538 -264.6154 22.0000
v -126.1538 -244.6154 22.0000
v -171.1538 -244.6154 22.0000
f 247 250 249 248
f 251 252 253 254
f 247 248 252 251
f 248 249 253 252
f 249 250 254 253
f 250 247 251 254
o unit_31_premier
usemtl premier
v -171.1538 -244.6154 0.0000
v -126.1538 -244.6154 0.0000
v -126.1538 -224.6154 0.0000
v -171.1538 -224.6154 0.0000
v -171.1538 -244.6154 22.0000
v -126.1538 -244.6154 22.0000
v -126.1538 -224.6154 22.0000
v -171.1538 -224.6154 22.0000
f 255 258 257 256
f 259 260 261 262
f 255 256 260 259
f 256 257 261 260
f 257 258 262 261
f 258 255 259 262
o unit_32_premier
usemtl premier
v -171.1538 -224.6154 0.0000
v -126.1538 -224.6154 0.0000
v -126.1538 -204.6154 0.0000
v -171.1538 -204.6154 0.0000
v -171.1538 -224.6154 22.0000
v -126.1538 -224.6154 22.0000
v -126.1538 -204.6154 22.0000
v -171.1538 -204.6154 22.0000
f 263 266 265 264
f 267 268 269 270
f 263 264 268 267
f 264 265 269 268
f 265 266 270 269
f 266 263 267 270
o unit_33_premier
usemtl premier
v -171.1538 -204.6154 0.0000
v -126.1538 -204.6154 0.0000
v -126.1538 -184.6154 0.0000
v -171.1538 -184.6154 0.0000
v -171.1538 -204.6154 22.0000
v -126.1538 -204.6154 22.0000
v -126.1538 -184.6154 22.0000
v -171.1538 -184.6154 22.0000
f 271 274 273 272
f 275 276 277 278
f 271 272 276 275
f 272 273 277 276
f 273 274 278 277
f 274 271 275 278
o unit_34_premier
usemtl premier
v -171.1538 -184.6154 0.0000
v -126.1538 -184.6154 0.0000
v -126.1538 -164.6154 0.0000
v -171.1538 -164.6154 0.0000
v -171.1538 -184.6154 22.0000
v -126.1538 -184.6154 22.0000
v -126.1538 -164.6154 22.0000
v -171.1538 -164.6154 22.0000
f 279 282 281 280
f 283 284 285 286
f 279 280 284 283
f 280 281 285 284
f 281 282 286 285
f 282 279 283 286
o unit_35_premier
usemtl premier
v -171.1538 -164.6154 0.0000
v -126.1538 -164.6154 0.0000
v -126.1538 -144.6154 0.0000
v -171.1538 -144.6154 0.0000
v -171.1538 -164.6154 22.0000
v -126.1538 -164.6154 22.0000
v -126.1538 -144.6154 22.0000
v -171.1538 -144.6154 22.0000
f 287 290 289 288
f 291 292 293 294
f 287 288 292 291
f 288 289 293 292
f 289 290 294 293
f 290 287 291 294
o unit_36_premier
usemtl premier
v -171.1538 -144.6154 0.0000
v -126.1538 -144.6154 0.0000
v -126.1538 -124.6154 0.0000
v -171.1538 -124.6154 0.0000
v -171.1538 -144.6154 22.0000
v -126.1538 -144.6154 22.0000
v -126.1538 -124.6154 22.0000
v -171.1538 -124.6154 22.0000
f 295 298 297 296
f 299 300 301 302
f 295 296 300 299
f 296 297 301 300
f 297 298 302 301
f 298 295 299 302
o unit_37_premier
usemtl premier
v -171.1538 -124.6154 0.0000
v -126.1538 -124.6154 0.0000
v -126.1538 -104.6154 0.0000
v -171.1538 -104.6154 0.0000
v -171.1538 -124.6154 22.0000
v -126.1538 -124.6154 22.0000
v -126.1538 -104.6154 22.0000
v -171.1538 -104.6154 22.0000
f 303 306 305 304
f 307 308 309 310
f 303 304 308 307
f 304 305 309 308
f 305 306 310 309
f 306 303 307 310
o unit_38_premier
usemtl premier
v -171.1538 -104.6154 0.0000
v -126.1538 -104.6154 0.0000
v -126.1538 -84.6154 0.0000
v -171.1538 -84.6154 0.0000
v -171.1538 -104.6154 22.0000
v -126.1538 -104.6154 22.0000
v -126.1538 -84.6154 22.0000
v -171.1538 -84.6154 22.0000
f 311 314 313 312
f 315 316 317 318
f 311 312 316 315
f 312 313 317 316
f 313 314 318 317
f 314 311 315 318
o unit_39_premier
usemtl premier
v -171.1538 -84.6154 0.0000
v -126.1538 -84.6154 0.0000
v -126.1538 -64.6154 0.0000
v -171.1538 -64.6154 0.0000
v -171.1538 -84.6154 22.0000
v -126.1538 -84.6154 22.0000
v -126.1538 -64.6154 22.0000
v -171.1538 -64.6154 22.0000
f 319 322 321 320
f 323 324 325 326
f 319 320 324 323
f 320 321 325 324
f 321 322 326 325
f 322 319 323 326
o unit_40_premier
usemtl premier
v -171.1538 -64.6154 0.0000
v -126.1538 -64.6154 0.0000
v -126.1538 -44.6154 0.0000
v -171.1538 -44.6154 0.0000
v -171.1538 -64.6154 22.0000
v -126.1538 -64.6154 22.0000
v -126.1538 -44.6154 22.0000
v -171.1538 -44.6154 22.0000
f 327 330 329 328
f 331 332 333 334
f 327 328 332 331
f 328 329 333 332
f 329 330 334 333
f 330 327 331 334
o unit_41_premier
usemtl premier
v -171.1538 -44.6154 0.0000
v -126.1538 -44.6154 0.0000
v -126.1538 -24.6154 0.0000
v -171.1538 -24.6154 0.0000
v -171.1538 -44.6154 22.0000
v -126.1538 -44.6154 22.0000
v -126.1538 -24.6154 22.0000
v -171.1538 -24.6154 22.0000
f 335 338 337 336
f 339 340 341 342
f 335 336 340 339
f 336 337 341 340
f 337 338 342 341
f 338 335 339 342
o unit_42_premier
usemtl premier
v -171.1538 -24.6154 0.0000
v -126.1538 -24.6154 0.0000
v -126.1538 -4.6154 0.0000
v -171.1538 -4.6154 0.0000
v -171.1538 -24.6154 22.0000
v -126.1538 -24.6154 22.0000
v -126.1538 -4.6154 22.0000
v -171.1538 -4.6154 22.0000
f 343 346 345 344
f 347 348 349 350
f 343 344 348 347
f 344 345 349 348
f 345 346 350 349
f 346 343 347 350
o unit_43_premier
usemtl premier
v -171.1538 -4.6154 0.0000
v -126.1538 -4.6154 0.0000
v -126.1538 15.3846 0.0000
v -171.1538 15.3846 0.0000
v -171.1538 -4.6154 22.0000
v -126.1538 -4.6154 22.0000
v -126.1538 15.3846 22.0000
v -171.1538 15.3846 22.0000
f 351 354 353 352
f 355 356 357 358
f 351 352 356 355
f 352 353 357 356
f 353 354 358 357
f 354 351 355 358
o unit_44_deluxe
usemtl deluxe
v -176.1538 22.4615 0.0000
v -126.1538 22.4615 0.0000
v -126.1538 50.4615 0.0000
v -176.1538 50.4615 0.0000
v -176.1538 22.4615 22.0000
v -126.1538 22.4615 22.0000
v -126.1538 50.4615 22.0000
v -176.1538 50.4615 22.0000
f 359 362 361 360
f 363 364 365 366
f 359 360 364 363
f 360 361 365 364
f 361 362 366 365
f 362 359 363 366
o unit_45_deluxe
usemtl deluxe
v -176.1538 50.4615 0.0000
v -126.1538 50.4615 0.0000
v -126.1538 78.4615 0.0000
v -176.1538 78.4615 0.0000
v -176.1538 50.4615 22.0000
v -126.1538 50.4615 22.0000
v -126.1538 78.4615 22.0000
v -176.1538 78.4615 22.0000
f 367 370 369 368
f 371 372 373 374
f 367 368 372 371
f 368 369 373 372
f 369 370 374 373
f 370 367 371 374
o unit_46_deluxe
usemtl deluxe
v -176.1538 78.4615 0.0000
v -126.1538 78.4615 0.0000
v -126.1538 106.4615 0.0000
v -176.1538 106.4615 0.0000
v -176.1538 78.4615 22.0000
v -126.1538 78.4615 22.0000
v -126.1538 106.4615 22.0000
v -176.1538 106.4615 22.0000
f 375 378 377 376
f 379 380 381 382
f 375 376 380 379
f 376 377 381 380
f 377 378 382 381
f 378 375 379 382
o unit_47_deluxe
usemtl deluxe
v -176.1538 106.4615 0.0000
v -126.1538 106.4615 0.0000
v -126.1538 134.4615 0.0000
v -176.1538 134.4615 0.0000
v -176.1538 106.4615 22.0000
v -126.1538 106.4615 22.0000
v -126.1538 134.4615 22.0000
v -176.1538 134.4615 22.0000
f 383 386 385 384
f 387 388 389 390
f 383 384 388 387
f 384 385 389 388
f 385 386 390 389
f 386 383 387 390
o unit_48_deluxe
usemtl deluxe
v -176.1538 134.4615 0.0000
v -126.1538 134.4615 0.0000
v -126.1538 162.4615 0.0000
v -176.1538 162.4615 0.0000
v -176.1538 134.4615 22.0000
v -126.1538 134.4615 22.0000
v -126.1538 162.4615 22.0000
v -176.1538 162.4615 22.0000
f 391 394 393 392
f 395 396 397 398
f 391 392 396 395
f 392 393 397 396
f 393 394 398 397
f 394 391 395 398
o unit_49_deluxe
usemtl deluxe
v -176.1538 162.4615 0.0000
v -126.1538 162.4615 0.0000
v -126.1538 190.4615 0.0000
v -176.1538 190.4615 0.0000
v -176.1538 162.4615 22.0000
v -126.1538 162.4615 22.0000
v -126.1538 190.4615 22.0000
v -176.1538 190.4615 22.0000
f 399 402 401 400
f 403 404 405 406
f 399 400 404 403
f 400 401 405 404
f 401 402 406 405
f 402 399 403 406
o unit_50_deluxe
usemtl deluxe
v -176.1538 190.4615 0.0000
v -126.1538 190.4615 0.0000
v -126.1538 218.4615 0.0000
v -176.1538 218.4615 0.0000
v -176.1538 190.4615 22.0000
v -126.1538 190.4615 22.0000
v -126.1538 218.4615 22.0000
v -176.1538 218.4615 22.0000
f 407 410 409 408
f 411 412 413 414
f 407 408 412 411
f 408 409 413 412
f 409 410 414 413
f 410 407 411 414
o unit_51_deluxe
usemtl deluxe
v -176.1538 218.4615 0.0000
v -126.1538 218.4615 0.0000
v -126.1538 246.4615 0.0000
v -176.1538 246.4615 0.0000
v -176.1538 218.4615 22.0000
v -126.1538 218.4615 22.0000
v -126.1538 246.4615 22.0000
v -176.1538 246.4615 22.0000
f 415 418 417 416
f 419 420 421 422
f 415 416 420 419
f 416 417 421 420
f 417 418 422 421
f 418 415 419 422
o unit_52_deluxe
usemtl deluxe
v -176.1538 246.4615 0.0000
v -126.1538 246.4615 0.0000
v -126.1538 274.4615 0.0000
v -176.1538 274.4615 0.0000
v -176.1538 246.4615 22.0000
v -126.1538 246.4615 22.0000
v -126.1538 274.4615 22.0000
v -176.1538 274.4615 22.0000
f 423 426 425 424
f 427 428 429 430
f 423 424 428 427
f 424 425 429 428
f 425 426 430 429
f 426 423 427 430
o unit_53_deluxe
usemtl deluxe
v -176.1538 274.4615 0.0000
v -126.1538 274.4615 0.0000
v -126.1538 302.4615 0.0000
v -176.1538 302.4615 0.0000
v -176.1538 274.4615 22.0000
v -126.1538 274.4615 22.0000
v -126.1538 302.4615 22.0000
v -176.1538 302.4615 22.0000
f 431 434 433 432
f 435 436 437 438
f 431 432 436 435
f 432 433 437 436
f 433 434 438 437
f 434 431 435 438
o unit_54_deluxe
usemtl deluxe
v -176.1538 302.4615 0.0000
v -126.1538 302.4615 0.0000
v -126.1538 330.4615 0.0000
v -176.1538 330.4615 0.0000
v -176.1538 302.4615 22.0000
v -126.1538 302.4615 22.0000
v -126.1538 330.4615 22.0000
v -176.1538 330.4615 22.0000
f 439 442 441 440
f 443 444 445 446
f 439 440 444 443
f 440 441 445 444
f 441 442 446 445
f 442 439 443 446
o unit_55_deluxe
usemtl deluxe
v -176.1538 330.4615 0.0000
v -126.1538 330.4615 0.0000
v -126.1538 358.4615 0.0000
v -176.1538 358.4615 0.0000
v -176.1538 330.4615 22.0000
v -126.1538 330.4615 22.0000
v -126.1538 358.4615 22.0000
v -176.1538 358.4615 22.0000
f 447 450 449 448
f 451 452 453 454
f 447 448 452 451
f 448 449 453 452
f 449 450 454 453
f 450 447 451 454
o unit_56_deluxe
usemtl deluxe
v -176.1538 358.4615 0.0000
v -126.1538 358.4615 0.0000
v -126.1538 386.4615 0.0000
v -176.1538 386.4615 0.0000
v -176.1538 358.4615 22.0000
v -126.1538 358.4615 22.0000
v -126.1538 386.4615 22.0000
v -176.1538 386.4615 22.0000
f 455 458 457 456
f 459 460 461 462
f 455 456 460 459
f 456 457 461 460
f 457 458 462 461
f 458 455 459 462
o unit_57_deluxe
usemtl deluxe
v -176.1538 386.4615 0.0000
v -126.1538 386.4615 0.0000
v -126.1538 414.4615 0.0000
v -176.1538 414.4615 0.0000
v -176.1538 386.4615 22.0000
v -126.1538 386.4615 22.0000
v -126.1538 414.4615 22.0000
v -176.1538 414.4615 22.0000
f 463 466 465 464
f 467 468 469 470
f 463 464 468 467
f 464 465 469 468
f 465 466 470 469
f 466 463 467 470
o unit_58_deluxe
usemtl deluxe
v -176.1538 414.4615 0.0000
v -126.1538 414.4615 0.0000
v -126.1538 442.4615 0.0000
v -176.1538 442.4615 0.0000
v -176.1538 414.4615 22.0000
v -126.1538 414.4615 22.0000
v -126.1538 442.4615 22.0000
v -176.1538 442.4615 22.0000
f 471 474 473 472
f 475 476 477 478
f 471 472 476 475
f 472 473 477 476
f 473 474 478 477
f 474 471 475 478
o unit_59_standard
usemtl standard
v 109.2308 305.2308 0.0000
v 139.2308 305.2308 0.0000
v 139.2308 333.2308 0.0000
v 109.2308 333.2308 0.0000
v 109.2308 305.2308 22.0000
v 139.2308 305.2308 22.0000
v 139.2308 333.2308 22.0000
v 109.2308 333.2308 22.0000
f 479 482 481 480
f 483 484 485 486
f 479 480 484 483
f 480 481 485 484
f 481 482 486 485
f 482 479 483 486
o unit_60_standard
usemtl standard
v 109.2308 277.2308 0.0000
v 139.2308 277.2308 0.0000
v 139.2308 305.2308 0.0000
v 109.2308 305.2308 0.0000
v 109.2308 277.2308 22.0000
v 139.2308 277.2308 22.0000
v 139.2308 305.2308 22.0000
v 109.2308 305.2308 22.0000
f 487 490 489 488
f 491 492 493 494
f 487 488 492 491
f 488 489 493 492
f 489 490 494 493
f 490 487 491 494
o unit_61_standard
usemtl standard
v 109.2308 249.2308 0.0000
v 139.2308 249.2308 0.0000
v 139.2308 277.2308 0.0000
v 109.2308 277.2308 0.0000
v 109.2308 249.2308 22.0000
v 139.2308 249.2308 22.0000
v 139.2308 277.2308 22.0000
v 109.2308 277.2308 22.0000
f 495 498 497 496
f 499 500 501 502
f 495 496 500 499
f 496 497 501 500
f 497 498 502 501
f 498 495 499 502
o unit_62_standard
usemtl standard
v 109.2308 221.2308 0.0000
v 139.2308 221.2308 0.0000
v 139.2308 249.2308 0.0000
v 109.2308 249.2308 0.0000
v 109.2308 221.2308 22.0000
v 139.2308 221.2308 22.0000
v 139.2308 249.2308 22.0000
v 109.2308 249.2308 22.0000
f 503 506 505 504
f 507 508 509 510
f 503 504 508 507
f 504 505 509 508
f 505 506 510 509
f 506 503 507 510
o unit_63_standard
usemtl standard
v 109.2308 193.2308 0.0000
v 139.2308 193.2308 0.0000
v 139.2308 221.2308 0.0000
v 109.2308 221.2308 0.0000
v 109.2308 193.2308 22.0000
v 139.2308 193.2308 22.0000
v 139.2308 221.2308 22.0000
v 109.2308 221.2308 22.0000
f 511 514 513 512
f 515 516 517 518
f 511 512 516 515
f 512 513 517 516
f 513 514 518 517
f 514 511 515 518
o unit_64_standard
usemtl standard
v 109.2308 165.2308 0.0000
v 139.2308 165.2308 0.0000
v 139.2308 193.2308 0.0000
v 109.2308 193.2308 0.0000
v 109.2308 165.2308 22.0000
v 139.2308 165.2308 22.0000
v 139.2308 193.2308 22.0000
v 109.2308 193.2308 22.0000
f 519 522 521 520
f 523 524 525 526
f 519 520 524 523
f 520 521 525 524
f 521 522 526 525
f 522 519 523 526
o unit_65_standard
usemtl standard
v 109.2308 137.2308 0.0000
v 139.2308 137.2308 0.0000
v 139.2308 165.2308 0.0000
v 109.2308 165.2308 0.0000
v 109.2308 137.2308 22.0000
v 139.2308 137.2308 22.0000
v 139.2308 165.2308 22.0000
v 109.2308 165.2308 22.0000
f 527 530 529 528
f 531 532 533 534
f 527 528 532 531
f 528 529 533 532
f 529 530 534 533
f 530 527 531 534
o unit_66_standard
usemtl standard
v 109.2308 109.2308 0.0000
v 139.2308 109.2308 0.0000
v 139.2308 137.2308 0.0000
v 109.2308 137.2308 0.0000
v 109.2308 109.2308 22.0000
v 139.2308 109.2308 22.0000
v 139.2308 137.2308 22.0000
v 109.2308 137.2308 22.0000
f 535 538 537 536
f 539 540 541 542
f 535 536 540 539
f 536 537 541 540
f 537 538 542 541
f 538 535 539 542
o unit_67_standard
usemtl standard
v 109.2308 81.2308 0.0000
v 139.2308 81.2308 0.0000
v 139.2308 109.2308 0.0000
v 109.2308 109.2308 0.0000
v 109.2308 81.2308 22.0000
v 139.2308 81.2308 22.0000
v 139.2308 109.2308 22.0000
v 109.2308 109.2308 22.0000
f 543 546 545 544
f 547 548 549 550
f 543 544 548 547
f 544 545 549 548
f 545 546 550 549
f 546 543 547 550
o unit_68_standard
usemtl standard
v 109.2308 53.2308 0.0000
v 139.2308 53.2308 0.0000
v 139.2308 81.2308 0.0000
v 109.2308 81.2308 0.0000
v 109.2308 53.2308 22.0000
v 139.2308 53.2308 22.0000
v 139.2308 81.2308 22.0000
v 109.2308 81.2308 22.0000
f 551 554 553 552
f 555 556 557 558
f 551 552 556 555
f 552 553 557 556
f 553 554 558 557
f 554 551 555 558
o unit_69_standard
usemtl standard
v 109.2308 25.2308 0.0000
v 139.2308 25.2308 0.0000
v 139.2308 53.2308 0.0000
v 109.2308 53.2308 0.0000
v 109.2308 25.2308 22.0000
v 139.2308 25.2308 22.0000
v 139.2308 53.2308 22.0000
v 109.2308 53.2308 22.0000
f 559 562 561 560
f 563 564 565 566
f 559 560 564 563
f 560 561 565 564
f 561 562 566 565
f 562 559 563 566
o unit_70_standard
usemtl standard
v 109.2308 -2.7692 0.0000
v 139.2308 -2.7692 0.0000
v 139.2308 25.2308 0.0000
v 109.2308 25.2308 0.0000
v 109.2308 -2.7692 22.0000
v 139.2308 -2.7692 22.0000
v 139.2308 25.2308 22.0000
v 109.2308 25.2308 22.0000
f 567 570 569 568
f 571 572 573 574
f 567 568 572 571
f 568 569 573 572
f 569 570 574 573
f 570 567 571 574
o unit_71_standard
usemtl standard
v 109.2308 -30.7692 0.0000
v 139.2308 -30.7692 0.0000
v 139.2308 -2.7692 0.0000
v 109.2308 -2.7692 0.0000
v 109.2308 -30.7692 22.0000
v 139.2308 -30.7692 22.0000
v 139.2308 -2.7692 22.0000
v 109.2308 -2.7692 22.0000
f 575 578 577 576
f 579 580 581 582
f 575 576 580 579
f 576 577 581 580
f 577 578 582 581
f 578 575 579 582
o unit_72_standard
usemtl standard
v 109.2308 -58.7692 0.0000
v 139.2308 -58.7692 0.0000
v 139.2308 -30.7692 0.0000
v 109.2308 -30.7692 0.0000
v 109.2308 -58.7692 22.0000
v 139.2308 -58.7692 22.0000
v 139.2308 -30.7692 22.0000
v 109.2308 -30.7692 22.0000
f 583 586 585 584
f 587 588 589 590
f 583 584 588 587
f 584 585 589 588
f 585 586 590 589
f 586 583 587 590
o unit_73_standard
usemtl standard
v 109.2308 -86.7692 0.0000
v 139.2308 -86.7692 0.0000
v 139.2308 -58.7692 0.0000
v 109.2308 -58.7692 0.0000
v 109.2308 -86.7692 22.0000
v 139.2308 -86.7692 22.0000
v 139.2308 -58.7692 22.0000
v 109.2308 -58.7692 22.0000
f 591 594 593 592
f 595 596 597 598
f 591 592 596 595
f 592 593 597 596
f 593 594 598 597
f 594 591 595 598
o unit_74_standard
usemtl standard
v 109.2308 -114.7692 0.0000
v 139.2308 -114.7692 0.0000
v 139.2308 -86.7692 0.0000
v 109.2308 -86.7692 0.0000
v 109.2308 -114.7692 22.0000
v 139.2308 -114.7692 22.0000
v 139.2308 -86.7692 22.0000
v 109.2308 -86.7692 22.0000
f 599 602 601 600
f 603 604 605 606
f 599 600 604 603
f 600 601 605 604
f 601 602 606 605
f 602 599 603 606
o unit_75_standard
usemtl standard
v 109.2308 -142.7692 0.0000
v 139.2308 -142.7692 0.0000
v 139.2308 -114.7692 0.0000
v 109.2308 -114.7692 0.0000
v 109.2308 -142.7692 22.0000
v 139.2308 -142.7692 22.0000
v 139.2308 -114.7692 22.0000
v 109.2308 -114.7692 22.0000
f 607 610 609 608
f 611 612 613 614
f 607 608 612 611
f 608 609 613 612
f 609 610 614 613
f 610 607 611 614
o detail_bay
usemtl amenity
v -58.4615 -23.8462 0.0000
v 52.3077 -23.8462 0.0000
v 52.3077 3.8462 0.0000
v -58.4615 3.8462 0.0000
v -58.4615 -23.8462 22.0000
v 52.3077 -23.8462 22.0000
v 52.3077 3.8462 22.0000
v -58.4615 3.8462 22.0000
f 615 618 617 616
f 619 620 621 622
f 615 616 620 619
f 616 617 621 620
f 617 618 622 621
f 618 615 619 622
o the_gallery
usemtl gallery
v -70.7692 -257.6923 0.0000
v 58.4615 -257.6923 0.0000
v 58.4615 -33.0769 0.0000
v -70.7692 -33.0769 0.0000
v -70.7692 -257.6923 22.0000
v 58.4615 -257.6923 22.0000
v 58.4615 -33.0769 22.0000
v -70.7692 -33.0769 22.0000
f 623 626 625 624
f 627 628 629 630
f 623 624 628 627
f 624 625 629 628
f 625 626 630 629
f 626 623 627 630
o luxe_club
usemtl club
v -70.7692 -325.3846 0.0000
v 58.4615 -325.3846 0.0000
v 58.4615 -265.3846 0.0000
v -70.7692 -265.3846 0.0000
v -70.7692 -325.3846 28.0000
v 58.4615 -325.3846 28.0000
v 58.4615 -265.3846 28.0000
v -70.7692 -265.3846 28.0000
f 631 634 633 632
f 635 636 637 638
f 631 632 636 635
f 632 633 637 636
f 633 634 638 637
f 634 631 635 638
o valet
usemtl amenity
v -87.6923 -365.3846 0.0000
v 58.4615 -365.3846 0.0000
v 58.4615 -333.0769 0.0000
v -87.6923 -333.0769 0.0000
v -87.6923 -365.3846 14.0000
v 58.4615 -365.3846 14.0000
v 58.4615 -333.0769 14.0000
v -87.6923 -333.0769 14.0000
f 639 642 641 640
f 643 644 645 646
f 639 640 644 643
f 640 641 645 644
f 641 642 646 645
f 642 639 643 646
o detail
usemtl amenity
v -183.0769 -359.2308 0.0000
v -135.3846 -359.2308 0.0000
v -135.3846 -336.1538 0.0000
v -183.0769 -336.1538 0.0000
v -183.0769 -359.2308 22.0000
v -135.3846 -359.2308 22.0000
v -135.3846 -336.1538 22.0000
v -183.0769 -336.1538 22.0000
f 647 650 649 648
f 651 652 653 654
f 647 648 652 651
f 648 649 653 652
f 649 650 654 653
f 650 647 651 654
o lounge
usemtl amenity
v -183.0769 -410.0000 0.0000
v -144.6154 -410.0000 0.0000
v -144.6154 -365.3846 0.0000
v -183.0769 -365.3846 0.0000
v -183.0769 -410.0000 22.0000
v -144.6154 -410.0000 22.0000
v -144.6154 -365.3846 22.0000
v -183.0769 -365.3846 22.0000
f 655 658 657 656
f 659 660 661 662
f 655 656 660 659
f 656 657 661 660
f 657 658 662 661
f 658 655 659 662
