mtllib ldg-deluxe-proof-scene.mtl
o approach_drive
usemtl asphalt
v -48.0000 -48.0000 -0.3000
v 76.0000 -48.0000 -0.3000
v 76.0000 12.0000 -0.3000
v -48.0000 12.0000 -0.3000
v -48.0000 -48.0000 0.0000
v 76.0000 -48.0000 0.0000
v 76.0000 12.0000 0.0000
v -48.0000 12.0000 0.0000
f 1 4 3 2
f 5 6 7 8
f 1 2 6 5
f 2 3 7 6
f 3 4 8 7
f 4 1 5 8
o front_apron
usemtl concrete
v -31.0000 -8.0000 0.0000
v 59.0000 -8.0000 0.0000
v 59.0000 3.0000 0.0000
v -31.0000 3.0000 0.0000
v -31.0000 -8.0000 0.1800
v 59.0000 -8.0000 0.1800
v 59.0000 3.0000 0.1800
v -31.0000 3.0000 0.1800
f 9 12 11 10
f 13 14 15 16
f 9 10 14 13
f 10 11 15 14
f 11 12 16 15
f 12 9 13 16
o left_context_unit_floor
usemtl concrete
v -28.0000 0.0000 0.0000
v 0.0000 0.0000 0.0000
v 0.0000 50.0000 0.0000
v -28.0000 50.0000 0.0000
v -28.0000 0.0000 0.2500
v 0.0000 0.0000 0.2500
v 0.0000 50.0000 0.2500
v -28.0000 50.0000 0.2500
f 17 20 19 18
f 21 22 23 24
f 17 18 22 21
f 18 19 23 22
f 19 20 24 23
f 20 17 21 24
o left_context_unit_left_wall
usemtl interior_white
v -28.0000 0.0000 0.0000
v -27.5000 0.0000 0.0000
v -27.5000 50.0000 0.0000
v -28.0000 50.0000 0.0000
v -28.0000 0.0000 22.0000
v -27.5000 0.0000 22.0000
v -27.5000 50.0000 22.0000
v -28.0000 50.0000 22.0000
f 25 28 27 26
f 29 30 31 32
f 25 26 30 29
f 26 27 31 30
f 27 28 32 31
f 28 25 29 32
o left_context_unit_right_wall
usemtl interior_white
v -0.5000 0.0000 0.0000
v 0.0000 0.0000 0.0000
v 0.0000 50.0000 0.0000
v -0.5000 50.0000 0.0000
v -0.5000 0.0000 22.0000
v 0.0000 0.0000 22.0000
v 0.0000 50.0000 22.0000
v -0.5000 50.0000 22.0000
f 33 36 35 34
f 37 38 39 40
f 33 34 38 37
f 34 35 39 38
f 35 36 40 39
f 36 33 37 40
o left_context_unit_rear_wall
usemtl interior_white
v -28.0000 49.5000 0.0000
v 0.0000 49.5000 0.0000
v 0.0000 50.0000 0.0000
v -28.0000 50.0000 0.0000
v -28.0000 49.5000 22.0000
v 0.0000 49.5000 22.0000
v 0.0000 50.0000 22.0000
v -28.0000 50.0000 22.0000
f 41 44 43 42
f 45 46 47 48
f 41 42 46 45
f 42 43 47 46
f 43 44 48 47
f 44 41 45 48
o left_context_unit_roof
usemtl metal
v -28.0000 0.0000 21.6500
v 0.0000 0.0000 21.6500
v 0.0000 50.0000 21.6500
v -28.0000 50.0000 21.6500
v -28.0000 0.0000 22.0000
v 0.0000 0.0000 22.0000
v 0.0000 50.0000 22.0000
v -28.0000 50.0000 22.0000
f 49 52 51 50
f 53 54 55 56
f 49 50 54 53
f 50 51 55 54
f 51 52 56 55
f 52 49 53 56
o left_context_unit_parapet
usemtl shell_white
v -28.0000 -0.4500 20.6000
v 0.0000 -0.4500 20.6000
v 0.0000 0.2500 20.6000
v -28.0000 0.2500 20.6000
v -28.0000 -0.4500 22.0000
v 0.0000 -0.4500 22.0000
v 0.0000 0.2500 22.0000
v -28.0000 0.2500 22.0000
f 57 60 59 58
f 61 62 63 64
f 57 58 62 61
f 58 59 63 62
f 59 60 64 63
f 60 57 61 64
o left_context_unit_left_frame
usemtl shell_white
v -28.0000 -0.5000 0.0000
v -27.2000 -0.5000 0.0000
v -27.2000 0.3500 0.0000
v -28.0000 0.3500 0.0000
v -28.0000 -0.5000 22.0000
v -27.2000 -0.5000 22.0000
v -27.2000 0.3500 22.0000
v -28.0000 0.3500 22.0000
f 65 68 67 66
f 69 70 71 72
f 65 66 70 69
f 66 67 71 70
f 67 68 72 71
f 68 65 69 72
o left_context_unit_opening_header
usemtl shell_white
v -27.2000 -0.4000 14.0000
v -15.2000 -0.4000 14.0000
v -15.2000 0.3000 14.0000
v -27.2000 0.3000 14.0000
v -27.2000 -0.4000 15.0000
v -15.2000 -0.4000 15.0000
v -15.2000 0.3000 15.0000
v -27.2000 0.3000 15.0000
f 73 76 75 74
f 77 78 79 80
f 73 74 78 77
f 74 75 79 78
f 75 76 80 79
f 76 73 77 80
o left_context_unit_wood_bay
usemtl wood
v -8.6000 -0.5200 0.0000
v 0.0000 -0.5200 0.0000
v 0.0000 0.2800 0.0000
v -8.6000 0.2800 0.0000
v -8.6000 -0.5200 20.6000
v 0.0000 -0.5200 20.6000
v 0.0000 0.2800 20.6000
v -8.6000 0.2800 20.6000
f 81 84 83 82
f 85 86 87 88
f 81 82 86 85
f 82 83 87 86
f 83 84 88 87
f 84 81 85 88
o left_context_unit_opening_divider
usemtl shell_white
v -15.2000 -0.5000 0.0000
v -8.6000 -0.5000 0.0000
v -8.6000 0.3500 0.0000
v -15.2000 0.3500 0.0000
v -15.2000 -0.5000 22.0000
v -8.6000 -0.5000 22.0000
v -8.6000 0.3500 22.0000
v -15.2000 0.3500 22.0000
f 89 92 91 90
f 93 94 95 96
f 89 90 94 93
f 90 91 95 94
f 91 92 96 95
f 92 89 93 96
o left_context_unit_garage_door
usemtl charcoal
v -27.2000 -0.7000 0.3000
v -15.2000 -0.7000 0.3000
v -15.2000 -0.5200 0.3000
v -27.2000 -0.5200 0.3000
v -27.2000 -0.7000 14.0000
v -15.2000 -0.7000 14.0000
v -15.2000 -0.5200 14.0000
v -27.2000 -0.5200 14.0000
f 97 100 99 98
f 101 102 103 104
f 97 98 102 101
f 98 99 103 102
f 99 100 104 103
f 100 97 101 104
o left_context_unit_garage_door_rail_h_0
usemtl metal
v -27.2000 -0.7600 2.2000
v -15.2000 -0.7600 2.2000
v -15.2000 -0.6600 2.2000
v -27.2000 -0.6600 2.2000
v -27.2000 -0.7600 2.2800
v -15.2000 -0.7600 2.2800
v -15.2000 -0.6600 2.2800
v -27.2000 -0.6600 2.2800
f 105 108 107 106
f 109 110 111 112
f 105 106 110 109
f 106 107 111 110
f 107 108 112 111
f 108 105 109 112
o left_context_unit_garage_door_rail_h_1
usemtl metal
v -27.2000 -0.7600 4.2000
v -15.2000 -0.7600 4.2000
v -15.2000 -0.6600 4.2000
v -27.2000 -0.6600 4.2000
v -27.2000 -0.7600 4.2800
v -15.2000 -0.7600 4.2800
v -15.2000 -0.6600 4.2800
v -27.2000 -0.6600 4.2800
f 113 116 115 114
f 117 118 119 120
f 113 114 118 117
f 114 115 119 118
f 115 116 120 119
f 116 113 117 120
o left_context_unit_garage_door_rail_h_2
usemtl metal
v -27.2000 -0.7600 6.2000
v -15.2000 -0.7600 6.2000
v -15.2000 -0.6600 6.2000
v -27.2000 -0.6600 6.2000
v -27.2000 -0.7600 6.2800
v -15.2000 -0.7600 6.2800
v -15.2000 -0.6600 6.2800
v -27.2000 -0.6600 6.2800
f 121 124 123 122
f 125 126 127 128
f 121 122 126 125
f 122 123 127 126
f 123 124 128 127
f 124 121 125 128
o left_context_unit_garage_door_rail_h_3
usemtl metal
v -27.2000 -0.7600 8.2000
v -15.2000 -0.7600 8.2000
v -15.2000 -0.6600 8.2000
v -27.2000 -0.6600 8.2000
v -27.2000 -0.7600 8.2800
v -15.2000 -0.7600 8.2800
v -15.2000 -0.6600 8.2800
v -27.2000 -0.6600 8.2800
f 129 132 131 130
f 133 134 135 136
f 129 130 134 133
f 130 131 135 134
f 131 132 136 135
f 132 129 133 136
o left_context_unit_garage_door_rail_h_4
usemtl metal
v -27.2000 -0.7600 10.2000
v -15.2000 -0.7600 10.2000
v -15.2000 -0.6600 10.2000
v -27.2000 -0.6600 10.2000
v -27.2000 -0.7600 10.2800
v -15.2000 -0.7600 10.2800
v -15.2000 -0.6600 10.2800
v -27.2000 -0.6600 10.2800
f 137 140 139 138
f 141 142 143 144
f 137 138 142 141
f 138 139 143 142
f 139 140 144 143
f 140 137 141 144
o left_context_unit_garage_door_rail_h_5
usemtl metal
v -27.2000 -0.7600 12.2000
v -15.2000 -0.7600 12.2000
v -15.2000 -0.6600 12.2000
v -27.2000 -0.6600 12.2000
v -27.2000 -0.7600 12.2800
v -15.2000 -0.7600 12.2800
v -15.2000 -0.6600 12.2800
v -27.2000 -0.6600 12.2800
f 145 148 147 146
f 149 150 151 152
f 145 146 150 149
f 146 147 151 150
f 147 148 152 151
f 148 145 149 152
o left_context_unit_garage_door_rail_v_0
usemtl metal
v -23.2000 -0.7600 0.3000
v -23.1200 -0.7600 0.3000
v -23.1200 -0.6600 0.3000
v -23.2000 -0.6600 0.3000
v -23.2000 -0.7600 14.0000
v -23.1200 -0.7600 14.0000
v -23.1200 -0.6600 14.0000
v -23.2000 -0.6600 14.0000
f 153 156 155 154
f 157 158 159 160
f 153 154 158 157
f 154 155 159 158
f 155 156 160 159
f 156 153 157 160
o left_context_unit_garage_door_rail_v_1
usemtl metal
v -19.2000 -0.7600 0.3000
v -19.1200 -0.7600 0.3000
v -19.1200 -0.6600 0.3000
v -19.2000 -0.6600 0.3000
v -19.2000 -0.7600 14.0000
v -19.1200 -0.7600 14.0000
v -19.1200 -0.6600 14.0000
v -19.2000 -0.6600 14.0000
f 161 164 163 162
f 165 166 167 168
f 161 162 166 165
f 162 163 167 166
f 163 164 168 167
f 164 161 165 168
o left_context_unit_upper_louver_00
usemtl charcoal
v -27.2000 -0.6800 15.1500
v -15.2000 -0.6800 15.1500
v -15.2000 -0.5200 15.1500
v -27.2000 -0.5200 15.1500
v -27.2000 -0.6800 15.2600
v -15.2000 -0.6800 15.2600
v -15.2000 -0.5200 15.2600
v -27.2000 -0.5200 15.2600
f 169 172 171 170
f 173 174 175 176
f 169 170 174 173
f 170 171 175 174
f 171 172 176 175
f 172 169 173 176
o left_context_unit_upper_louver_01
usemtl charcoal
v -27.2000 -0.6800 15.5500
v -15.2000 -0.6800 15.5500
v -15.2000 -0.5200 15.5500
v -27.2000 -0.5200 15.5500
v -27.2000 -0.6800 15.6600
v -15.2000 -0.6800 15.6600
v -15.2000 -0.5200 15.6600
v -27.2000 -0.5200 15.6600
f 177 180 179 178
f 181 182 183 184
f 177 178 182 181
f 178 179 183 182
f 179 180 184 183
f 180 177 181 184
o left_context_unit_upper_louver_02
usemtl charcoal
v -27.2000 -0.6800 15.9500
v -15.2000 -0.6800 15.9500
v -15.2000 -0.5200 15.9500
v -27.2000 -0.5200 15.9500
v -27.2000 -0.6800 16.0600
v -15.2000 -0.6800 16.0600
v -15.2000 -0.5200 16.0600
v -27.2000 -0.5200 16.0600
f 185 188 187 186
f 189 190 191 192
f 185 186 190 189
f 186 187 191 190
f 187 188 192 191
f 188 185 189 192
o left_context_unit_upper_louver_03
usemtl charcoal
v -27.2000 -0.6800 16.3500
v -15.2000 -0.6800 16.3500
v -15.2000 -0.5200 16.3500
v -27.2000 -0.5200 16.3500
v -27.2000 -0.6800 16.4600
v -15.2000 -0.6800 16.4600
v -15.2000 -0.5200 16.4600
v -27.2000 -0.5200 16.4600
f 193 196 195 194
f 197 198 199 200
f 193 194 198 197
f 194 195 199 198
f 195 196 200 199
f 196 193 197 200
o left_context_unit_upper_louver_04
usemtl charcoal
v -27.2000 -0.6800 16.7500
v -15.2000 -0.6800 16.7500
v -15.2000 -0.5200 16.7500
v -27.2000 -0.5200 16.7500
v -27.2000 -0.6800 16.8600
v -15.2000 -0.6800 16.8600
v -15.2000 -0.5200 16.8600
v -27.2000 -0.5200 16.8600
f 201 204 203 202
f 205 206 207 208
f 201 202 206 205
f 202 203 207 206
f 203 204 208 207
f 204 201 205 208
o left_context_unit_upper_louver_05
usemtl charcoal
v -27.2000 -0.6800 17.1500
v -15.2000 -0.6800 17.1500
v -15.2000 -0.5200 17.1500
v -27.2000 -0.5200 17.1500
v -27.2000 -0.6800 17.2600
v -15.2000 -0.6800 17.2600
v -15.2000 -0.5200 17.2600
v -27.2000 -0.5200 17.2600
f 209 212 211 210
f 213 214 215 216
f 209 210 214 213
f 210 211 215 214
f 211 212 216 215
f 212 209 213 216
o left_context_unit_upper_louver_06
usemtl charcoal
v -27.2000 -0.6800 17.5500
v -15.2000 -0.6800 17.5500
v -15.2000 -0.5200 17.5500
v -27.2000 -0.5200 17.5500
v -27.2000 -0.6800 17.6600
v -15.2000 -0.6800 17.6600
v -15.2000 -0.5200 17.6600
v -27.2000 -0.5200 17.6600
f 217 220 219 218
f 221 222 223 224
f 217 218 222 221
f 218 219 223 222
f 219 220 224 223
f 220 217 221 224
o left_context_unit_upper_louver_07
usemtl charcoal
v -27.2000 -0.6800 17.9500
v -15.2000 -0.6800 17.9500
v -15.2000 -0.5200 17.9500
v -27.2000 -0.5200 17.9500
v -27.2000 -0.6800 18.0600
v -15.2000 -0.6800 18.0600
v -15.2000 -0.5200 18.0600
v -27.2000 -0.5200 18.0600
f 225 228 227 226
f 229 230 231 232
f 225 226 230 229
f 226 227 231 230
f 227 228 232 231
f 228 225 229 232
o left_context_unit_upper_louver_08
usemtl charcoal
v -27.2000 -0.6800 18.3500
v -15.2000 -0.6800 18.3500
v -15.2000 -0.5200 18.3500
v -27.2000 -0.5200 18.3500
v -27.2000 -0.6800 18.4600
v -15.2000 -0.6800 18.4600
v -15.2000 -0.5200 18.4600
v -27.2000 -0.5200 18.4600
f 233 236 235 234
f 237 238 239 240
f 233 234 238 237
f 234 235 239 238
f 235 236 240 239
f 236 233 237 240
o left_context_unit_upper_louver_09
usemtl charcoal
v -27.2000 -0.6800 18.7500
v -15.2000 -0.6800 18.7500
v -15.2000 -0.5200 18.7500
v -27.2000 -0.5200 18.7500
v -27.2000 -0.6800 18.8600
v -15.2000 -0.6800 18.8600
v -15.2000 -0.5200 18.8600
v -27.2000 -0.5200 18.8600
f 241 244 243 242
f 245 246 247 248
f 241 242 246 245
f 242 243 247 246
f 243 244 248 247
f 244 241 245 248
o left_context_unit_upper_louver_10
usemtl charcoal
v -27.2000 -0.6800 19.1500
v -15.2000 -0.6800 19.1500
v -15.2000 -0.5200 19.1500
v -27.2000 -0.5200 19.1500
v -27.2000 -0.6800 19.2600
v -15.2000 -0.6800 19.2600
v -15.2000 -0.5200 19.2600
v -27.2000 -0.5200 19.2600
f 249 252 251 250
f 253 254 255 256
f 249 250 254 253
f 250 251 255 254
f 251 252 256 255
f 252 249 253 256
o left_context_unit_upper_louver_11
usemtl charcoal
v -27.2000 -0.6800 19.5500
v -15.2000 -0.6800 19.5500
v -15.2000 -0.5200 19.5500
v -27.2000 -0.5200 19.5500
v -27.2000 -0.6800 19.6600
v -15.2000 -0.6800 19.6600
v -15.2000 -0.5200 19.6600
v -27.2000 -0.5200 19.6600
f 257 260 259 258
f 261 262 263 264
f 257 258 262 261
f 258 259 263 262
f 259 260 264 263
f 260 257 261 264
o left_context_unit_upper_louver_12
usemtl charcoal
v -27.2000 -0.6800 19.9500
v -15.2000 -0.6800 19.9500
v -15.2000 -0.5200 19.9500
v -27.2000 -0.5200 19.9500
v -27.2000 -0.6800 20.0600
v -15.2000 -0.6800 20.0600
v -15.2000 -0.5200 20.0600
v -27.2000 -0.5200 20.0600
f 265 268 267 266
f 269 270 271 272
f 265 266 270 269
f 266 267 271 270
f 267 268 272 271
f 268 265 269 272
o left_context_unit_pedestrian_door
usemtl charcoal
v -6.5000 -0.6400 0.2000
v -3.0000 -0.6400 0.2000
v -3.0000 -0.4800 0.2000
v -6.5000 -0.4800 0.2000
v -6.5000 -0.6400 8.2000
v -3.0000 -0.6400 8.2000
v -3.0000 -0.4800 8.2000
v -6.5000 -0.4800 8.2000
f 273 276 275 274
f 277 278 279 280
f 273 274 278 277
f 274 275 279 278
f 275 276 280 279
f 276 273 277 280
o left_context_unit_pedestrian_canopy
usemtl metal
v -9.0000 -2.2000 8.4500
v 0.1500 -2.2000 8.4500
v 0.1500 0.0000 8.4500
v -9.0000 0.0000 8.4500
v -9.0000 -2.2000 8.8500
v 0.1500 -2.2000 8.8500
v 0.1500 0.0000 8.8500
v -9.0000 0.0000 8.8500
f 281 284 283 282
f 285 286 287 288
f 281 282 286 285
f 282 283 287 286
f 283 284 288 287
f 284 281 285 288
o left_context_unit_upper_window
usemtl glass
v -6.5000 -0.6700 15.5000
v -2.6000 -0.6700 15.5000
v -2.6000 -0.4900 15.5000
v -6.5000 -0.4900 15.5000
v -6.5000 -0.6700 19.3000
v -2.6000 -0.6700 19.3000
v -2.6000 -0.4900 19.3000
v -6.5000 -0.4900 19.3000
f 289 292 291 290
f 293 294 295 296
f 289 290 294 293
f 290 291 295 294
f 291 292 296 295
f 292 289 293 296
o left_context_unit_planter
usemtl concrete
v -9.4000 -1.3500 0.0000
v -8.0000 -1.3500 0.0000
v -8.0000 -0.2500 0.0000
v -9.4000 -0.2500 0.0000
v -9.4000 -1.3500 0.8000
v -8.0000 -1.3500 0.8000
v -8.0000 -0.2500 0.8000
v -9.4000 -0.2500 0.8000
f 297 300 299 298
f 301 302 303 304
f 297 298 302 301
f 298 299 303 302
f 299 300 304 303
f 300 297 301 304
o left_context_unit_landscape_marker
usemtl foliage
v -8.9500 -0.7200 0.8000
v -8.4500 -0.7200 0.8000
v -8.4500 -0.5000 0.8000
v -8.9500 -0.5000 0.8000
v -8.9500 -0.7200 13.8000
v -8.4500 -0.7200 13.8000
v -8.4500 -0.5000 13.8000
v -8.9500 -0.5000 13.8000
f 305 308 307 306
f 309 310 311 312
f 305 306 310 309
f 306 307 311 310
f 307 308 312 311
f 308 305 309 312
o proof_unit_floor
usemtl concrete
v 0.0000 0.0000 0.0000
v 28.0000 0.0000 0.0000
v 28.0000 50.0000 0.0000
v 0.0000 50.0000 0.0000
v 0.0000 0.0000 0.2500
v 28.0000 0.0000 0.2500
v 28.0000 50.0000 0.2500
v 0.0000 50.0000 0.2500
f 313 316 315 314
f 317 318 319 320
f 313 314 318 317
f 314 315 319 318
f 315 316 320 319
f 316 313 317 320
o proof_unit_left_wall
usemtl interior_white
v 0.0000 0.0000 0.0000
v 0.5000 0.0000 0.0000
v 0.5000 50.0000 0.0000
v 0.0000 50.0000 0.0000
v 0.0000 0.0000 22.0000
v 0.5000 0.0000 22.0000
v 0.5000 50.0000 22.0000
v 0.0000 50.0000 22.0000
f 321 324 323 322
f 325 326 327 328
f 321 322 326 325
f 322 323 327 326
f 323 324 328 327
f 324 321 325 328
o proof_unit_right_wall
usemtl interior_white
v 27.5000 0.0000 0.0000
v 28.0000 0.0000 0.0000
v 28.0000 50.0000 0.0000
v 27.5000 50.0000 0.0000
v 27.5000 0.0000 22.0000
v 28.0000 0.0000 22.0000
v 28.0000 50.0000 22.0000
v 27.5000 50.0000 22.0000
f 329 332 331 330
f 333 334 335 336
f 329 330 334 333
f 330 331 335 334
f 331 332 336 335
f 332 329 333 336
o proof_unit_rear_wall
usemtl interior_white
v 0.0000 49.5000 0.0000
v 28.0000 49.5000 0.0000
v 28.0000 50.0000 0.0000
v 0.0000 50.0000 0.0000
v 0.0000 49.5000 22.0000
v 28.0000 49.5000 22.0000
v 28.0000 50.0000 22.0000
v 0.0000 50.0000 22.0000
f 337 340 339 338
f 341 342 343 344
f 337 338 342 341
f 338 339 343 342
f 339 340 344 343
f 340 337 341 344
o proof_unit_roof
usemtl metal
v 0.0000 0.0000 21.6500
v 28.0000 0.0000 21.6500
v 28.0000 50.0000 21.6500
v 0.0000 50.0000 21.6500
v 0.0000 0.0000 22.0000
v 28.0000 0.0000 22.0000
v 28.0000 50.0000 22.0000
v 0.0000 50.0000 22.0000
f 345 348 347 346
f 349 350 351 352
f 345 346 350 349
f 346 347 351 350
f 347 348 352 351
f 348 345 349 352
o proof_unit_parapet
usemtl shell_white
v 0.0000 -0.4500 20.6000
v 28.0000 -0.4500 20.6000
v 28.0000 0.2500 20.6000
v 0.0000 0.2500 20.6000
v 0.0000 -0.4500 22.0000
v 28.0000 -0.4500 22.0000
v 28.0000 0.2500 22.0000
v 0.0000 0.2500 22.0000
f 353 356 355 354
f 357 358 359 360
f 353 354 358 357
f 354 355 359 358
f 355 356 360 359
f 356 353 357 360
o proof_unit_left_frame
usemtl shell_white
v 0.0000 -0.5000 0.0000
v 0.8000 -0.5000 0.0000
v 0.8000 0.3500 0.0000
v 0.0000 0.3500 0.0000
v 0.0000 -0.5000 22.0000
v 0.8000 -0.5000 22.0000
v 0.8000 0.3500 22.0000
v 0.0000 0.3500 22.0000
f 361 364 363 362
f 365 366 367 368
f 361 362 366 365
f 362 363 367 366
f 363 364 368 367
f 364 361 365 368
o proof_unit_opening_header
usemtl shell_white
v 0.8000 -0.4000 14.0000
v 12.8000 -0.4000 14.0000
v 12.8000 0.3000 14.0000
v 0.8000 0.3000 14.0000
v 0.8000 -0.4000 15.0000
v 12.8000 -0.4000 15.0000
v 12.8000 0.3000 15.0000
v 0.8000 0.3000 15.0000
f 369 372 371 370
f 373 374 375 376
f 369 370 374 373
f 370 371 375 374
f 371 372 376 375
f 372 369 373 376
o proof_unit_wood_bay
usemtl wood
v 19.4000 -0.5200 0.0000
v 28.0000 -0.5200 0.0000
v 28.0000 0.2800 0.0000
v 19.4000 0.2800 0.0000
v 19.4000 -0.5200 20.6000
v 28.0000 -0.5200 20.6000
v 28.0000 0.2800 20.6000
v 19.4000 0.2800 20.6000
f 377 380 379 378
f 381 382 383 384
f 377 378 382 381
f 378 379 383 382
f 379 380 384 383
f 380 377 381 384
o proof_unit_opening_divider
usemtl shell_white
v 12.8000 -0.5000 0.0000
v 19.4000 -0.5000 0.0000
v 19.4000 0.3500 0.0000
v 12.8000 0.3500 0.0000
v 12.8000 -0.5000 22.0000
v 19.4000 -0.5000 22.0000
v 19.4000 0.3500 22.0000
v 12.8000 0.3500 22.0000
f 385 388 387 386
f 389 390 391 392
f 385 386 390 389
f 386 387 391 390
f 387 388 392 391
f 388 385 389 392
o proof_unit_garage_door
usemtl charcoal
v 0.8000 -0.7000 0.3000
v 12.8000 -0.7000 0.3000
v 12.8000 -0.5200 0.3000
v 0.8000 -0.5200 0.3000
v 0.8000 -0.7000 14.0000
v 12.8000 -0.7000 14.0000
v 12.8000 -0.5200 14.0000
v 0.8000 -0.5200 14.0000
f 393 396 395 394
f 397 398 399 400
f 393 394 398 397
f 394 395 399 398
f 395 396 400 399
f 396 393 397 400
o proof_unit_garage_door_rail_h_0
usemtl metal
v 0.8000 -0.7600 2.2000
v 12.8000 -0.7600 2.2000
v 12.8000 -0.6600 2.2000
v 0.8000 -0.6600 2.2000
v 0.8000 -0.7600 2.2800
v 12.8000 -0.7600 2.2800
v 12.8000 -0.6600 2.2800
v 0.8000 -0.6600 2.2800
f 401 404 403 402
f 405 406 407 408
f 401 402 406 405
f 402 403 407 406
f 403 404 408 407
f 404 401 405 408
o proof_unit_garage_door_rail_h_1
usemtl metal
v 0.8000 -0.7600 4.2000
v 12.8000 -0.7600 4.2000
v 12.8000 -0.6600 4.2000
v 0.8000 -0.6600 4.2000
v 0.8000 -0.7600 4.2800
v 12.8000 -0.7600 4.2800
v 12.8000 -0.6600 4.2800
v 0.8000 -0.6600 4.2800
f 409 412 411 410
f 413 414 415 416
f 409 410 414 413
f 410 411 415 414
f 411 412 416 415
f 412 409 413 416
o proof_unit_garage_door_rail_h_2
usemtl metal
v 0.8000 -0.7600 6.2000
v 12.8000 -0.7600 6.2000
v 12.8000 -0.6600 6.2000
v 0.8000 -0.6600 6.2000
v 0.8000 -0.7600 6.2800
v 12.8000 -0.7600 6.2800
v 12.8000 -0.6600 6.2800
v 0.8000 -0.6600 6.2800
f 417 420 419 418
f 421 422 423 424
f 417 418 422 421
f 418 419 423 422
f 419 420 424 423
f 420 417 421 424
o proof_unit_garage_door_rail_h_3
usemtl metal
v 0.8000 -0.7600 8.2000
v 12.8000 -0.7600 8.2000
v 12.8000 -0.6600 8.2000
v 0.8000 -0.6600 8.2000
v 0.8000 -0.7600 8.2800
v 12.8000 -0.7600 8.2800
v 12.8000 -0.6600 8.2800
v 0.8000 -0.6600 8.2800
f 425 428 427 426
f 429 430 431 432
f 425 426 430 429
f 426 427 431 430
f 427 428 432 431
f 428 425 429 432
o proof_unit_garage_door_rail_h_4
usemtl metal
v 0.8000 -0.7600 10.2000
v 12.8000 -0.7600 10.2000
v 12.8000 -0.6600 10.2000
v 0.8000 -0.6600 10.2000
v 0.8000 -0.7600 10.2800
v 12.8000 -0.7600 10.2800
v 12.8000 -0.6600 10.2800
v 0.8000 -0.6600 10.2800
f 433 436 435 434
f 437 438 439 440
f 433 434 438 437
f 434 435 439 438
f 435 436 440 439
f 436 433 437 440
o proof_unit_garage_door_rail_h_5
usemtl metal
v 0.8000 -0.7600 12.2000
v 12.8000 -0.7600 12.2000
v 12.8000 -0.6600 12.2000
v 0.8000 -0.6600 12.2000
v 0.8000 -0.7600 12.2800
v 12.8000 -0.7600 12.2800
v 12.8000 -0.6600 12.2800
v 0.8000 -0.6600 12.2800
f 441 444 443 442
f 445 446 447 448
f 441 442 446 445
f 442 443 447 446
f 443 444 448 447
f 444 441 445 448
o proof_unit_garage_door_rail_v_0
usemtl metal
v 4.8000 -0.7600 0.3000
v 4.8800 -0.7600 0.3000
v 4.8800 -0.6600 0.3000
v 4.8000 -0.6600 0.3000
v 4.8000 -0.7600 14.0000
v 4.8800 -0.7600 14.0000
v 4.8800 -0.6600 14.0000
v 4.8000 -0.6600 14.0000
f 449 452 451 450
f 453 454 455 456
f 449 450 454 453
f 450 451 455 454
f 451 452 456 455
f 452 449 453 456
o proof_unit_garage_door_rail_v_1
usemtl metal
v 8.8000 -0.7600 0.3000
v 8.8800 -0.7600 0.3000
v 8.8800 -0.6600 0.3000
v 8.8000 -0.6600 0.3000
v 8.8000 -0.7600 14.0000
v 8.8800 -0.7600 14.0000
v 8.8800 -0.6600 14.0000
v 8.8000 -0.6600 14.0000
f 457 460 459 458
f 461 462 463 464
f 457 458 462 461
f 458 459 463 462
f 459 460 464 463
f 460 457 461 464
o proof_unit_upper_louver_00
usemtl charcoal
v 0.8000 -0.6800 15.1500
v 12.8000 -0.6800 15.1500
v 12.8000 -0.5200 15.1500
v 0.8000 -0.5200 15.1500
v 0.8000 -0.6800 15.2600
v 12.8000 -0.6800 15.2600
v 12.8000 -0.5200 15.2600
v 0.8000 -0.5200 15.2600
f 465 468 467 466
f 469 470 471 472
f 465 466 470 469
f 466 467 471 470
f 467 468 472 471
f 468 465 469 472
o proof_unit_upper_louver_01
usemtl charcoal
v 0.8000 -0.6800 15.5500
v 12.8000 -0.6800 15.5500
v 12.8000 -0.5200 15.5500
v 0.8000 -0.5200 15.5500
v 0.8000 -0.6800 15.6600
v 12.8000 -0.6800 15.6600
v 12.8000 -0.5200 15.6600
v 0.8000 -0.5200 15.6600
f 473 476 475 474
f 477 478 479 480
f 473 474 478 477
f 474 475 479 478
f 475 476 480 479
f 476 473 477 480
o proof_unit_upper_louver_02
usemtl charcoal
v 0.8000 -0.6800 15.9500
v 12.8000 -0.6800 15.9500
v 12.8000 -0.5200 15.9500
v 0.8000 -0.5200 15.9500
v 0.8000 -0.6800 16.0600
v 12.8000 -0.6800 16.0600
v 12.8000 -0.5200 16.0600
v 0.8000 -0.5200 16.0600
f 481 484 483 482
f 485 486 487 488
f 481 482 486 485
f 482 483 487 486
f 483 484 488 487
f 484 481 485 488
o proof_unit_upper_louver_03
usemtl charcoal
v 0.8000 -0.6800 16.3500
v 12.8000 -0.6800 16.3500
v 12.8000 -0.5200 16.3500
v 0.8000 -0.5200 16.3500
v 0.8000 -0.6800 16.4600
v 12.8000 -0.6800 16.4600
v 12.8000 -0.5200 16.4600
v 0.8000 -0.5200 16.4600
f 489 492 491 490
f 493 494 495 496
f 489 490 494 493
f 490 491 495 494
f 491 492 496 495
f 492 489 493 496
o proof_unit_upper_louver_04
usemtl charcoal
v 0.8000 -0.6800 16.7500
v 12.8000 -0.6800 16.7500
v 12.8000 -0.5200 16.7500
v 0.8000 -0.5200 16.7500
v 0.8000 -0.6800 16.8600
v 12.8000 -0.6800 16.8600
v 12.8000 -0.5200 16.8600
v 0.8000 -0.5200 16.8600
f 497 500 499 498
f 501 502 503 504
f 497 498 502 501
f 498 499 503 502
f 499 500 504 503
f 500 497 501 504
o proof_unit_upper_louver_05
usemtl charcoal
v 0.8000 -0.6800 17.1500
v 12.8000 -0.6800 17.1500
v 12.8000 -0.5200 17.1500
v 0.8000 -0.5200 17.1500
v 0.8000 -0.6800 17.2600
v 12.8000 -0.6800 17.2600
v 12.8000 -0.5200 17.2600
v 0.8000 -0.5200 17.2600
f 505 508 507 506
f 509 510 511 512
f 505 506 510 509
f 506 507 511 510
f 507 508 512 511
f 508 505 509 512
o proof_unit_upper_louver_06
usemtl charcoal
v 0.8000 -0.6800 17.5500
v 12.8000 -0.6800 17.5500
v 12.8000 -0.5200 17.5500
v 0.8000 -0.5200 17.5500
v 0.8000 -0.6800 17.6600
v 12.8000 -0.6800 17.6600
v 12.8000 -0.5200 17.6600
v 0.8000 -0.5200 17.6600
f 513 516 515 514
f 517 518 519 520
f 513 514 518 517
f 514 515 519 518
f 515 516 520 519
f 516 513 517 520
o proof_unit_upper_louver_07
usemtl charcoal
v 0.8000 -0.6800 17.9500
v 12.8000 -0.6800 17.9500
v 12.8000 -0.5200 17.9500
v 0.8000 -0.5200 17.9500
v 0.8000 -0.6800 18.0600
v 12.8000 -0.6800 18.0600
v 12.8000 -0.5200 18.0600
v 0.8000 -0.5200 18.0600
f 521 524 523 522
f 525 526 527 528
f 521 522 526 525
f 522 523 527 526
f 523 524 528 527
f 524 521 525 528
o proof_unit_upper_louver_08
usemtl charcoal
v 0.8000 -0.6800 18.3500
v 12.8000 -0.6800 18.3500
v 12.8000 -0.5200 18.3500
v 0.8000 -0.5200 18.3500
v 0.8000 -0.6800 18.4600
v 12.8000 -0.6800 18.4600
v 12.8000 -0.5200 18.4600
v 0.8000 -0.5200 18.4600
f 529 532 531 530
f 533 534 535 536
f 529 530 534 533
f 530 531 535 534
f 531 532 536 535
f 532 529 533 536
o proof_unit_upper_louver_09
usemtl charcoal
v 0.8000 -0.6800 18.7500
v 12.8000 -0.6800 18.7500
v 12.8000 -0.5200 18.7500
v 0.8000 -0.5200 18.7500
v 0.8000 -0.6800 18.8600
v 12.8000 -0.6800 18.8600
v 12.8000 -0.5200 18.8600
v 0.8000 -0.5200 18.8600
f 537 540 539 538
f 541 542 543 544
f 537 538 542 541
f 538 539 543 542
f 539 540 544 543
f 540 537 541 544
o proof_unit_upper_louver_10
usemtl charcoal
v 0.8000 -0.6800 19.1500
v 12.8000 -0.6800 19.1500
v 12.8000 -0.5200 19.1500
v 0.8000 -0.5200 19.1500
v 0.8000 -0.6800 19.2600
v 12.8000 -0.6800 19.2600
v 12.8000 -0.5200 19.2600
v 0.8000 -0.5200 19.2600
f 545 548 547 546
f 549 550 551 552
f 545 546 550 549
f 546 547 551 550
f 547 548 552 551
f 548 545 549 552
o proof_unit_upper_louver_11
usemtl charcoal
v 0.8000 -0.6800 19.5500
v 12.8000 -0.6800 19.5500
v 12.8000 -0.5200 19.5500
v 0.8000 -0.5200 19.5500
v 0.8000 -0.6800 19.6600
v 12.8000 -0.6800 19.6600
v 12.8000 -0.5200 19.6600
v 0.8000 -0.5200 19.6600
f 553 556 555 554
f 557 558 559 560
f 553 554 558 557
f 554 555 559 558
f 555 556 560 559
f 556 553 557 560
o proof_unit_upper_louver_12
usemtl charcoal
v 0.8000 -0.6800 19.9500
v 12.8000 -0.6800 19.9500
v 12.8000 -0.5200 19.9500
v 0.8000 -0.5200 19.9500
v 0.8000 -0.6800 20.0600
v 12.8000 -0.6800 20.0600
v 12.8000 -0.5200 20.0600
v 0.8000 -0.5200 20.0600
f 561 564 563 562
f 565 566 567 568
f 561 562 566 565
f 562 563 567 566
f 563 564 568 567
f 564 561 565 568
o proof_unit_pedestrian_door
usemtl charcoal
v 21.5000 -0.6400 0.2000
v 25.0000 -0.6400 0.2000
v 25.0000 -0.4800 0.2000
v 21.5000 -0.4800 0.2000
v 21.5000 -0.6400 8.2000
v 25.0000 -0.6400 8.2000
v 25.0000 -0.4800 8.2000
v 21.5000 -0.4800 8.2000
f 569 572 571 570
f 573 574 575 576
f 569 570 574 573
f 570 571 575 574
f 571 572 576 575
f 572 569 573 576
o proof_unit_pedestrian_canopy
usemtl metal
v 19.0000 -2.2000 8.4500
v 28.1500 -2.2000 8.4500
v 28.1500 0.0000 8.4500
v 19.0000 0.0000 8.4500
v 19.0000 -2.2000 8.8500
v 28.1500 -2.2000 8.8500
v 28.1500 0.0000 8.8500
v 19.0000 0.0000 8.8500
f 577 580 579 578
f 581 582 583 584
f 577 578 582 581
f 578 579 583 582
f 579 580 584 583
f 580 577 581 584
o proof_unit_upper_window
usemtl glass
v 21.5000 -0.6700 15.5000
v 25.4000 -0.6700 15.5000
v 25.4000 -0.4900 15.5000
v 21.5000 -0.4900 15.5000
v 21.5000 -0.6700 19.3000
v 25.4000 -0.6700 19.3000
v 25.4000 -0.4900 19.3000
v 21.5000 -0.4900 19.3000
f 585 588 587 586
f 589 590 591 592
f 585 586 590 589
f 586 587 591 590
f 587 588 592 591
f 588 585 589 592
o proof_unit_planter
usemtl concrete
v 18.6000 -1.3500 0.0000
v 20.0000 -1.3500 0.0000
v 20.0000 -0.2500 0.0000
v 18.6000 -0.2500 0.0000
v 18.6000 -1.3500 0.8000
v 20.0000 -1.3500 0.8000
v 20.0000 -0.2500 0.8000
v 18.6000 -0.2500 0.8000
f 593 596 595 594
f 597 598 599 600
f 593 594 598 597
f 594 595 599 598
f 595 596 600 599
f 596 593 597 600
o proof_unit_landscape_marker
usemtl foliage
v 19.0500 -0.7200 0.8000
v 19.5500 -0.7200 0.8000
v 19.5500 -0.5000 0.8000
v 19.0500 -0.5000 0.8000
v 19.0500 -0.7200 13.8000
v 19.5500 -0.7200 13.8000
v 19.5500 -0.5000 13.8000
v 19.0500 -0.5000 13.8000
f 601 604 603 602
f 605 606 607 608
f 601 602 606 605
f 602 603 607 606
f 603 604 608 607
f 604 601 605 608
o proof_unit_selection_marker
usemtl copper
v 26.5000 -0.7200 9.6000
v 26.7500 -0.7200 9.6000
v 26.7500 -0.5500 9.6000
v 26.5000 -0.5500 9.6000
v 26.5000 -0.7200 13.0000
v 26.7500 -0.7200 13.0000
v 26.7500 -0.5500 13.0000
v 26.5000 -0.5500 13.0000
f 609 612 611 610
f 613 614 615 616
f 609 610 614 613
f 610 611 615 614
f 611 612 616 615
f 612 609 613 616
o right_context_unit_floor
usemtl concrete
v 28.0000 0.0000 0.0000
v 56.0000 0.0000 0.0000
v 56.0000 50.0000 0.0000
v 28.0000 50.0000 0.0000
v 28.0000 0.0000 0.2500
v 56.0000 0.0000 0.2500
v 56.0000 50.0000 0.2500
v 28.0000 50.0000 0.2500
f 617 620 619 618
f 621 622 623 624
f 617 618 622 621
f 618 619 623 622
f 619 620 624 623
f 620 617 621 624
o right_context_unit_left_wall
usemtl interior_white
v 28.0000 0.0000 0.0000
v 28.5000 0.0000 0.0000
v 28.5000 50.0000 0.0000
v 28.0000 50.0000 0.0000
v 28.0000 0.0000 22.0000
v 28.5000 0.0000 22.0000
v 28.5000 50.0000 22.0000
v 28.0000 50.0000 22.0000
f 625 628 627 626
f 629 630 631 632
f 625 626 630 629
f 626 627 631 630
f 627 628 632 631
f 628 625 629 632
o right_context_unit_right_wall
usemtl interior_white
v 55.5000 0.0000 0.0000
v 56.0000 0.0000 0.0000
v 56.0000 50.0000 0.0000
v 55.5000 50.0000 0.0000
v 55.5000 0.0000 22.0000
v 56.0000 0.0000 22.0000
v 56.0000 50.0000 22.0000
v 55.5000 50.0000 22.0000
f 633 636 635 634
f 637 638 639 640
f 633 634 638 637
f 634 635 639 638
f 635 636 640 639
f 636 633 637 640
o right_context_unit_rear_wall
usemtl interior_white
v 28.0000 49.5000 0.0000
v 56.0000 49.5000 0.0000
v 56.0000 50.0000 0.0000
v 28.0000 50.0000 0.0000
v 28.0000 49.5000 22.0000
v 56.0000 49.5000 22.0000
v 56.0000 50.0000 22.0000
v 28.0000 50.0000 22.0000
f 641 644 643 642
f 645 646 647 648
f 641 642 646 645
f 642 643 647 646
f 643 644 648 647
f 644 641 645 648
o right_context_unit_roof
usemtl metal
v 28.0000 0.0000 21.6500
v 56.0000 0.0000 21.6500
v 56.0000 50.0000 21.6500
v 28.0000 50.0000 21.6500
v 28.0000 0.0000 22.0000
v 56.0000 0.0000 22.0000
v 56.0000 50.0000 22.0000
v 28.0000 50.0000 22.0000
f 649 652 651 650
f 653 654 655 656
f 649 650 654 653
f 650 651 655 654
f 651 652 656 655
f 652 649 653 656
o right_context_unit_parapet
usemtl shell_white
v 28.0000 -0.4500 20.6000
v 56.0000 -0.4500 20.6000
v 56.0000 0.2500 20.6000
v 28.0000 0.2500 20.6000
v 28.0000 -0.4500 22.0000
v 56.0000 -0.4500 22.0000
v 56.0000 0.2500 22.0000
v 28.0000 0.2500 22.0000
f 657 660 659 658
f 661 662 663 664
f 657 658 662 661
f 658 659 663 662
f 659 660 664 663
f 660 657 661 664
o right_context_unit_left_frame
usemtl shell_white
v 28.0000 -0.5000 0.0000
v 28.8000 -0.5000 0.0000
v 28.8000 0.3500 0.0000
v 28.0000 0.3500 0.0000
v 28.0000 -0.5000 22.0000
v 28.8000 -0.5000 22.0000
v 28.8000 0.3500 22.0000
v 28.0000 0.3500 22.0000
f 665 668 667 666
f 669 670 671 672
f 665 666 670 669
f 666 667 671 670
f 667 668 672 671
f 668 665 669 672
o right_context_unit_opening_header
usemtl shell_white
v 28.8000 -0.4000 14.0000
v 40.8000 -0.4000 14.0000
v 40.8000 0.3000 14.0000
v 28.8000 0.3000 14.0000
v 28.8000 -0.4000 15.0000
v 40.8000 -0.4000 15.0000
v 40.8000 0.3000 15.0000
v 28.8000 0.3000 15.0000
f 673 676 675 674
f 677 678 679 680
f 673 674 678 677
f 674 675 679 678
f 675 676 680 679
f 676 673 677 680
o right_context_unit_wood_bay
usemtl wood
v 47.4000 -0.5200 0.0000
v 56.0000 -0.5200 0.0000
v 56.0000 0.2800 0.0000
v 47.4000 0.2800 0.0000
v 47.4000 -0.5200 20.6000
v 56.0000 -0.5200 20.6000
v 56.0000 0.2800 20.6000
v 47.4000 0.2800 20.6000
f 681 684 683 682
f 685 686 687 688
f 681 682 686 685
f 682 683 687 686
f 683 684 688 687
f 684 681 685 688
o right_context_unit_opening_divider
usemtl shell_white
v 40.8000 -0.5000 0.0000
v 47.4000 -0.5000 0.0000
v 47.4000 0.3500 0.0000
v 40.8000 0.3500 0.0000
v 40.8000 -0.5000 22.0000
v 47.4000 -0.5000 22.0000
v 47.4000 0.3500 22.0000
v 40.8000 0.3500 22.0000
f 689 692 691 690
f 693 694 695 696
f 689 690 694 693
f 690 691 695 694
f 691 692 696 695
f 692 689 693 696
o right_context_unit_garage_door
usemtl charcoal
v 28.8000 -0.7000 0.3000
v 40.8000 -0.7000 0.3000
v 40.8000 -0.5200 0.3000
v 28.8000 -0.5200 0.3000
v 28.8000 -0.7000 14.0000
v 40.8000 -0.7000 14.0000
v 40.8000 -0.5200 14.0000
v 28.8000 -0.5200 14.0000
f 697 700 699 698
f 701 702 703 704
f 697 698 702 701
f 698 699 703 702
f 699 700 704 703
f 700 697 701 704
o right_context_unit_garage_door_rail_h_0
usemtl metal
v 28.8000 -0.7600 2.2000
v 40.8000 -0.7600 2.2000
v 40.8000 -0.6600 2.2000
v 28.8000 -0.6600 2.2000
v 28.8000 -0.7600 2.2800
v 40.8000 -0.7600 2.2800
v 40.8000 -0.6600 2.2800
v 28.8000 -0.6600 2.2800
f 705 708 707 706
f 709 710 711 712
f 705 706 710 709
f 706 707 711 710
f 707 708 712 711
f 708 705 709 712
o right_context_unit_garage_door_rail_h_1
usemtl metal
v 28.8000 -0.7600 4.2000
v 40.8000 -0.7600 4.2000
v 40.8000 -0.6600 4.2000
v 28.8000 -0.6600 4.2000
v 28.8000 -0.7600 4.2800
v 40.8000 -0.7600 4.2800
v 40.8000 -0.6600 4.2800
v 28.8000 -0.6600 4.2800
f 713 716 715 714
f 717 718 719 720
f 713 714 718 717
f 714 715 719 718
f 715 716 720 719
f 716 713 717 720
o right_context_unit_garage_door_rail_h_2
usemtl metal
v 28.8000 -0.7600 6.2000
v 40.8000 -0.7600 6.2000
v 40.8000 -0.6600 6.2000
v 28.8000 -0.6600 6.2000
v 28.8000 -0.7600 6.2800
v 40.8000 -0.7600 6.2800
v 40.8000 -0.6600 6.2800
v 28.8000 -0.6600 6.2800
f 721 724 723 722
f 725 726 727 728
f 721 722 726 725
f 722 723 727 726
f 723 724 728 727
f 724 721 725 728
o right_context_unit_garage_door_rail_h_3
usemtl metal
v 28.8000 -0.7600 8.2000
v 40.8000 -0.7600 8.2000
v 40.8000 -0.6600 8.2000
v 28.8000 -0.6600 8.2000
v 28.8000 -0.7600 8.2800
v 40.8000 -0.7600 8.2800
v 40.8000 -0.6600 8.2800
v 28.8000 -0.6600 8.2800
f 729 732 731 730
f 733 734 735 736
f 729 730 734 733
f 730 731 735 734
f 731 732 736 735
f 732 729 733 736
o right_context_unit_garage_door_rail_h_4
usemtl metal
v 28.8000 -0.7600 10.2000
v 40.8000 -0.7600 10.2000
v 40.8000 -0.6600 10.2000
v 28.8000 -0.6600 10.2000
v 28.8000 -0.7600 10.2800
v 40.8000 -0.7600 10.2800
v 40.8000 -0.6600 10.2800
v 28.8000 -0.6600 10.2800
f 737 740 739 738
f 741 742 743 744
f 737 738 742 741
f 738 739 743 742
f 739 740 744 743
f 740 737 741 744
o right_context_unit_garage_door_rail_h_5
usemtl metal
v 28.8000 -0.7600 12.2000
v 40.8000 -0.7600 12.2000
v 40.8000 -0.6600 12.2000
v 28.8000 -0.6600 12.2000
v 28.8000 -0.7600 12.2800
v 40.8000 -0.7600 12.2800
v 40.8000 -0.6600 12.2800
v 28.8000 -0.6600 12.2800
f 745 748 747 746
f 749 750 751 752
f 745 746 750 749
f 746 747 751 750
f 747 748 752 751
f 748 745 749 752
o right_context_unit_garage_door_rail_v_0
usemtl metal
v 32.8000 -0.7600 0.3000
v 32.8800 -0.7600 0.3000
v 32.8800 -0.6600 0.3000
v 32.8000 -0.6600 0.3000
v 32.8000 -0.7600 14.0000
v 32.8800 -0.7600 14.0000
v 32.8800 -0.6600 14.0000
v 32.8000 -0.6600 14.0000
f 753 756 755 754
f 757 758 759 760
f 753 754 758 757
f 754 755 759 758
f 755 756 760 759
f 756 753 757 760
o right_context_unit_garage_door_rail_v_1
usemtl metal
v 36.8000 -0.7600 0.3000
v 36.8800 -0.7600 0.3000
v 36.8800 -0.6600 0.3000
v 36.8000 -0.6600 0.3000
v 36.8000 -0.7600 14.0000
v 36.8800 -0.7600 14.0000
v 36.8800 -0.6600 14.0000
v 36.8000 -0.6600 14.0000
f 761 764 763 762
f 765 766 767 768
f 761 762 766 765
f 762 763 767 766
f 763 764 768 767
f 764 761 765 768
o right_context_unit_upper_louver_00
usemtl charcoal
v 28.8000 -0.6800 15.1500
v 40.8000 -0.6800 15.1500
v 40.8000 -0.5200 15.1500
v 28.8000 -0.5200 15.1500
v 28.8000 -0.6800 15.2600
v 40.8000 -0.6800 15.2600
v 40.8000 -0.5200 15.2600
v 28.8000 -0.5200 15.2600
f 769 772 771 770
f 773 774 775 776
f 769 770 774 773
f 770 771 775 774
f 771 772 776 775
f 772 769 773 776
o right_context_unit_upper_louver_01
usemtl charcoal
v 28.8000 -0.6800 15.5500
v 40.8000 -0.6800 15.5500
v 40.8000 -0.5200 15.5500
v 28.8000 -0.5200 15.5500
v 28.8000 -0.6800 15.6600
v 40.8000 -0.6800 15.6600
v 40.8000 -0.5200 15.6600
v 28.8000 -0.5200 15.6600
f 777 780 779 778
f 781 782 783 784
f 777 778 782 781
f 778 779 783 782
f 779 780 784 783
f 780 777 781 784
o right_context_unit_upper_louver_02
usemtl charcoal
v 28.8000 -0.6800 15.9500
v 40.8000 -0.6800 15.9500
v 40.8000 -0.5200 15.9500
v 28.8000 -0.5200 15.9500
v 28.8000 -0.6800 16.0600
v 40.8000 -0.6800 16.0600
v 40.8000 -0.5200 16.0600
v 28.8000 -0.5200 16.0600
f 785 788 787 786
f 789 790 791 792
f 785 786 790 789
f 786 787 791 790
f 787 788 792 791
f 788 785 789 792
o right_context_unit_upper_louver_03
usemtl charcoal
v 28.8000 -0.6800 16.3500
v 40.8000 -0.6800 16.3500
v 40.8000 -0.5200 16.3500
v 28.8000 -0.5200 16.3500
v 28.8000 -0.6800 16.4600
v 40.8000 -0.6800 16.4600
v 40.8000 -0.5200 16.4600
v 28.8000 -0.5200 16.4600
f 793 796 795 794
f 797 798 799 800
f 793 794 798 797
f 794 795 799 798
f 795 796 800 799
f 796 793 797 800
o right_context_unit_upper_louver_04
usemtl charcoal
v 28.8000 -0.6800 16.7500
v 40.8000 -0.6800 16.7500
v 40.8000 -0.5200 16.7500
v 28.8000 -0.5200 16.7500
v 28.8000 -0.6800 16.8600
v 40.8000 -0.6800 16.8600
v 40.8000 -0.5200 16.8600
v 28.8000 -0.5200 16.8600
f 801 804 803 802
f 805 806 807 808
f 801 802 806 805
f 802 803 807 806
f 803 804 808 807
f 804 801 805 808
o right_context_unit_upper_louver_05
usemtl charcoal
v 28.8000 -0.6800 17.1500
v 40.8000 -0.6800 17.1500
v 40.8000 -0.5200 17.1500
v 28.8000 -0.5200 17.1500
v 28.8000 -0.6800 17.2600
v 40.8000 -0.6800 17.2600
v 40.8000 -0.5200 17.2600
v 28.8000 -0.5200 17.2600
f 809 812 811 810
f 813 814 815 816
f 809 810 814 813
f 810 811 815 814
f 811 812 816 815
f 812 809 813 816
o right_context_unit_upper_louver_06
usemtl charcoal
v 28.8000 -0.6800 17.5500
v 40.8000 -0.6800 17.5500
v 40.8000 -0.5200 17.5500
v 28.8000 -0.5200 17.5500
v 28.8000 -0.6800 17.6600
v 40.8000 -0.6800 17.6600
v 40.8000 -0.5200 17.6600
v 28.8000 -0.5200 17.6600
f 817 820 819 818
f 821 822 823 824
f 817 818 822 821
f 818 819 823 822
f 819 820 824 823
f 820 817 821 824
o right_context_unit_upper_louver_07
usemtl charcoal
v 28.8000 -0.6800 17.9500
v 40.8000 -0.6800 17.9500
v 40.8000 -0.5200 17.9500
v 28.8000 -0.5200 17.9500
v 28.8000 -0.6800 18.0600
v 40.8000 -0.6800 18.0600
v 40.8000 -0.5200 18.0600
v 28.8000 -0.5200 18.0600
f 825 828 827 826
f 829 830 831 832
f 825 826 830 829
f 826 827 831 830
f 827 828 832 831
f 828 825 829 832
o right_context_unit_upper_louver_08
usemtl charcoal
v 28.8000 -0.6800 18.3500
v 40.8000 -0.6800 18.3500
v 40.8000 -0.5200 18.3500
v 28.8000 -0.5200 18.3500
v 28.8000 -0.6800 18.4600
v 40.8000 -0.6800 18.4600
v 40.8000 -0.5200 18.4600
v 28.8000 -0.5200 18.4600
f 833 836 835 834
f 837 838 839 840
f 833 834 838 837
f 834 835 839 838
f 835 836 840 839
f 836 833 837 840
o right_context_unit_upper_louver_09
usemtl charcoal
v 28.8000 -0.6800 18.7500
v 40.8000 -0.6800 18.7500
v 40.8000 -0.5200 18.7500
v 28.8000 -0.5200 18.7500
v 28.8000 -0.6800 18.8600
v 40.8000 -0.6800 18.8600
v 40.8000 -0.5200 18.8600
v 28.8000 -0.5200 18.8600
f 841 844 843 842
f 845 846 847 848
f 841 842 846 845
f 842 843 847 846
f 843 844 848 847
f 844 841 845 848
o right_context_unit_upper_louver_10
usemtl charcoal
v 28.8000 -0.6800 19.1500
v 40.8000 -0.6800 19.1500
v 40.8000 -0.5200 19.1500
v 28.8000 -0.5200 19.1500
v 28.8000 -0.6800 19.2600
v 40.8000 -0.6800 19.2600
v 40.8000 -0.5200 19.2600
v 28.8000 -0.5200 19.2600
f 849 852 851 850
f 853 854 855 856
f 849 850 854 853
f 850 851 855 854
f 851 852 856 855
f 852 849 853 856
o right_context_unit_upper_louver_11
usemtl charcoal
v 28.8000 -0.6800 19.5500
v 40.8000 -0.6800 19.5500
v 40.8000 -0.5200 19.5500
v 28.8000 -0.5200 19.5500
v 28.8000 -0.6800 19.6600
v 40.8000 -0.6800 19.6600
v 40.8000 -0.5200 19.6600
v 28.8000 -0.5200 19.6600
f 857 860 859 858
f 861 862 863 864
f 857 858 862 861
f 858 859 863 862
f 859 860 864 863
f 860 857 861 864
o right_context_unit_upper_louver_12
usemtl charcoal
v 28.8000 -0.6800 19.9500
v 40.8000 -0.6800 19.9500
v 40.8000 -0.5200 19.9500
v 28.8000 -0.5200 19.9500
v 28.8000 -0.6800 20.0600
v 40.8000 -0.6800 20.0600
v 40.8000 -0.5200 20.0600
v 28.8000 -0.5200 20.0600
f 865 868 867 866
f 869 870 871 872
f 865 866 870 869
f 866 867 871 870
f 867 868 872 871
f 868 865 869 872
o right_context_unit_pedestrian_door
usemtl charcoal
v 49.5000 -0.6400 0.2000
v 53.0000 -0.6400 0.2000
v 53.0000 -0.4800 0.2000
v 49.5000 -0.4800 0.2000
v 49.5000 -0.6400 8.2000
v 53.0000 -0.6400 8.2000
v 53.0000 -0.4800 8.2000
v 49.5000 -0.4800 8.2000
f 873 876 875 874
f 877 878 879 880
f 873 874 878 877
f 874 875 879 878
f 875 876 880 879
f 876 873 877 880
o right_context_unit_pedestrian_canopy
usemtl metal
v 47.0000 -2.2000 8.4500
v 56.1500 -2.2000 8.4500
v 56.1500 0.0000 8.4500
v 47.0000 0.0000 8.4500
v 47.0000 -2.2000 8.8500
v 56.1500 -2.2000 8.8500
v 56.1500 0.0000 8.8500
v 47.0000 0.0000 8.8500
f 881 884 883 882
f 885 886 887 888
f 881 882 886 885
f 882 883 887 886
f 883 884 888 887
f 884 881 885 888
o right_context_unit_upper_window
usemtl glass
v 49.5000 -0.6700 15.5000
v 53.4000 -0.6700 15.5000
v 53.4000 -0.4900 15.5000
v 49.5000 -0.4900 15.5000
v 49.5000 -0.6700 19.3000
v 53.4000 -0.6700 19.3000
v 53.4000 -0.4900 19.3000
v 49.5000 -0.4900 19.3000
f 889 892 891 890
f 893 894 895 896
f 889 890 894 893
f 890 891 895 894
f 891 892 896 895
f 892 889 893 896
o right_context_unit_planter
usemtl concrete
v 46.6000 -1.3500 0.0000
v 48.0000 -1.3500 0.0000
v 48.0000 -0.2500 0.0000
v 46.6000 -0.2500 0.0000
v 46.6000 -1.3500 0.8000
v 48.0000 -1.3500 0.8000
v 48.0000 -0.2500 0.8000
v 46.6000 -0.2500 0.8000
f 897 900 899 898
f 901 902 903 904
f 897 898 902 901
f 898 899 903 902
f 899 900 904 903
f 900 897 901 904
o right_context_unit_landscape_marker
usemtl foliage
v 47.0500 -0.7200 0.8000
v 47.5500 -0.7200 0.8000
v 47.5500 -0.5000 0.8000
v 47.0500 -0.5000 0.8000
v 47.0500 -0.7200 13.8000
v 47.5500 -0.7200 13.8000
v 47.5500 -0.5000 13.8000
v 47.0500 -0.5000 13.8000
f 905 908 907 906
f 909 910 911 912
f 905 906 910 909
f 906 907 911 910
f 907 908 912 911
f 908 905 909 912
o proof_unit_mezzanine_structure
usemtl mezzanine
v 0.5000 34.0000 10.5000
v 27.5000 34.0000 10.5000
v 27.5000 49.5000 10.5000
v 0.5000 49.5000 10.5000
v 0.5000 34.0000 12.0000
v 27.5000 34.0000 12.0000
v 27.5000 49.5000 12.0000
v 0.5000 49.5000 12.0000
f 913 916 915 914
f 917 918 919 920
f 913 914 918 917
f 914 915 919 918
f 915 916 920 919
f 916 913 917 920
o proof_unit_mezzanine_floor
usemtl mezzanine
v 0.5000 34.0000 12.0000
v 27.5000 34.0000 12.0000
v 27.5000 49.5000 12.0000
v 0.5000 49.5000 12.0000
v 0.5000 34.0000 12.2500
v 27.5000 34.0000 12.2500
v 27.5000 49.5000 12.2500
v 0.5000 49.5000 12.2500
f 921 924 923 922
f 925 926 927 928
f 921 922 926 925
f 922 923 927 926
f 923 924 928 927
f 924 921 925 928
o proof_unit_mezzanine_front_beam
usemtl metal
v 0.5000 33.6500 10.5000
v 27.5000 33.6500 10.5000
v 27.5000 34.1500 10.5000
v 0.5000 34.1500 10.5000
v 0.5000 33.6500 12.0000
v 27.5000 33.6500 12.0000
v 27.5000 34.1500 12.0000
v 0.5000 34.1500 12.0000
f 929 932 931 930
f 933 934 935 936
f 929 930 934 933
f 930 931 935 934
f 931 932 936 935
f 932 929 933 936
o proof_unit_rail_top
usemtl metal
v 0.6000 33.8000 15.2000
v 27.4000 33.8000 15.2000
v 27.4000 34.0500 15.2000
v 0.6000 34.0500 15.2000
v 0.6000 33.8000 15.4500
v 27.4000 33.8000 15.4500
v 27.4000 34.0500 15.4500
v 0.6000 34.0500 15.4500
f 937 940 939 938
f 941 942 943 944
f 937 938 942 941
f 938 939 943 942
f 939 940 944 943
f 940 937 941 944
o proof_unit_rail_post_0
usemtl metal
v 0.7000 33.8000 12.5000
v 0.8800 33.8000 12.5000
v 0.8800 34.0500 12.5000
v 0.7000 34.0500 12.5000
v 0.7000 33.8000 15.3000
v 0.8800 33.8000 15.3000
v 0.8800 34.0500 15.3000
v 0.7000 34.0500 15.3000
f 945 948 947 946
f 949 950 951 952
f 945 946 950 949
f 946 947 951 950
f 947 948 952 951
f 948 945 949 952
o proof_unit_rail_post_1
usemtl metal
v 5.0500 33.8000 12.5000
v 5.2300 33.8000 12.5000
v 5.2300 34.0500 12.5000
v 5.0500 34.0500 12.5000
v 5.0500 33.8000 15.3000
v 5.2300 33.8000 15.3000
v 5.2300 34.0500 15.3000
v 5.0500 34.0500 15.3000
f 953 956 955 954
f 957 958 959 960
f 953 954 958 957
f 954 955 959 958
f 955 956 960 959
f 956 953 957 960
o proof_unit_rail_post_2
usemtl metal
v 9.4000 33.8000 12.5000
v 9.5800 33.8000 12.5000
v 9.5800 34.0500 12.5000
v 9.4000 34.0500 12.5000
v 9.4000 33.8000 15.3000
v 9.5800 33.8000 15.3000
v 9.5800 34.0500 15.3000
v 9.4000 34.0500 15.3000
f 961 964 963 962
f 965 966 967 968
f 961 962 966 965
f 962 963 967 966
f 963 964 968 967
f 964 961 965 968
o proof_unit_rail_post_3
usemtl metal
v 13.7500 33.8000 12.5000
v 13.9300 33.8000 12.5000
v 13.9300 34.0500 12.5000
v 13.7500 34.0500 12.5000
v 13.7500 33.8000 15.3000
v 13.9300 33.8000 15.3000
v 13.9300 34.0500 15.3000
v 13.7500 34.0500 15.3000
f 969 972 971 970
f 973 974 975 976
f 969 970 974 973
f 970 971 975 974
f 971 972 976 975
f 972 969 973 976
o proof_unit_rail_post_4
usemtl metal
v 18.1000 33.8000 12.5000
v 18.2800 33.8000 12.5000
v 18.2800 34.0500 12.5000
v 18.1000 34.0500 12.5000
v 18.1000 33.8000 15.3000
v 18.2800 33.8000 15.3000
v 18.2800 34.0500 15.3000
v 18.1000 34.0500 15.3000
f 977 980 979 978
f 981 982 983 984
f 977 978 982 981
f 978 979 983 982
f 979 980 984 983
f 980 977 981 984
o proof_unit_rail_post_5
usemtl metal
v 22.4500 33.8000 12.5000
v 22.6300 33.8000 12.5000
v 22.6300 34.0500 12.5000
v 22.4500 34.0500 12.5000
v 22.4500 33.8000 15.3000
v 22.6300 33.8000 15.3000
v 22.6300 34.0500 15.3000
v 22.4500 34.0500 15.3000
f 985 988 987 986
f 989 990 991 992
f 985 986 990 989
f 986 987 991 990
f 987 988 992 991
f 988 985 989 992
o proof_unit_rail_post_6
usemtl metal
v 26.8000 33.8000 12.5000
v 26.9800 33.8000 12.5000
v 26.9800 34.0500 12.5000
v 26.8000 34.0500 12.5000
v 26.8000 33.8000 15.3000
v 26.9800 33.8000 15.3000
v 26.9800 34.0500 15.3000
v 26.8000 34.0500 15.3000
f 993 996 995 994
f 997 998 999 1000
f 993 994 998 997
f 994 995 999 998
f 995 996 1000 999
f 996 993 997 1000
o proof_unit_stair_00
usemtl metal
v 0.5000 13.5000 0.0000
v 5.1667 13.5000 0.0000
v 5.1667 14.7812 0.0000
v 0.5000 14.7812 0.0000
v 0.5000 13.5000 0.7500
v 5.1667 13.5000 0.7500
v 5.1667 14.7812 0.7500
v 0.5000 14.7812 0.7500
f 1001 1004 1003 1002
f 1005 1006 1007 1008
f 1001 1002 1006 1005
f 1002 1003 1007 1006
f 1003 1004 1008 1007
f 1004 1001 1005 1008
o proof_unit_stair_01
usemtl metal
v 0.5000 14.7812 0.0000
v 5.1667 14.7812 0.0000
v 5.1667 16.0625 0.0000
v 0.5000 16.0625 0.0000
v 0.5000 14.7812 1.5000
v 5.1667 14.7812 1.5000
v 5.1667 16.0625 1.5000
v 0.5000 16.0625 1.5000
f 1009 1012 1011 1010
f 1013 1014 1015 1016
f 1009 1010 1014 1013
f 1010 1011 1015 1014
f 1011 1012 1016 1015
f 1012 1009 1013 1016
o proof_unit_stair_02
usemtl metal
v 0.5000 16.0625 0.0000
v 5.1667 16.0625 0.0000
v 5.1667 17.3438 0.0000
v 0.5000 17.3438 0.0000
v 0.5000 16.0625 2.2500
v 5.1667 16.0625 2.2500
v 5.1667 17.3438 2.2500
v 0.5000 17.3438 2.2500
f 1017 1020 1019 1018
f 1021 1022 1023 1024
f 1017 1018 1022 1021
f 1018 1019 1023 1022
f 1019 1020 1024 1023
f 1020 1017 1021 1024
o proof_unit_stair_03
usemtl metal
v 0.5000 17.3438 0.0000
v 5.1667 17.3438 0.0000
v 5.1667 18.6250 0.0000
v 0.5000 18.6250 0.0000
v 0.5000 17.3438 3.0000
v 5.1667 17.3438 3.0000
v 5.1667 18.6250 3.0000
v 0.5000 18.6250 3.0000
f 1025 1028 1027 1026
f 1029 1030 1031 1032
f 1025 1026 1030 1029
f 1026 1027 1031 1030
f 1027 1028 1032 1031
f 1028 1025 1029 1032
o proof_unit_stair_04
usemtl metal
v 0.5000 18.6250 0.0000
v 5.1667 18.6250 0.0000
v 5.1667 19.9062 0.0000
v 0.5000 19.9062 0.0000
v 0.5000 18.6250 3.7500
v 5.1667 18.6250 3.7500
v 5.1667 19.9062 3.7500
v 0.5000 19.9062 3.7500
f 1033 1036 1035 1034
f 1037 1038 1039 1040
f 1033 1034 1038 1037
f 1034 1035 1039 1038
f 1035 1036 1040 1039
f 1036 1033 1037 1040
o proof_unit_stair_05
usemtl metal
v 0.5000 19.9062 0.0000
v 5.1667 19.9062 0.0000
v 5.1667 21.1875 0.0000
v 0.5000 21.1875 0.0000
v 0.5000 19.9062 4.5000
v 5.1667 19.9062 4.5000
v 5.1667 21.1875 4.5000
v 0.5000 21.1875 4.5000
f 1041 1044 1043 1042
f 1045 1046 1047 1048
f 1041 1042 1046 1045
f 1042 1043 1047 1046
f 1043 1044 1048 1047
f 1044 1041 1045 1048
o proof_unit_stair_06
usemtl metal
v 0.5000 21.1875 0.0000
v 5.1667 21.1875 0.0000
v 5.1667 22.4688 0.0000
v 0.5000 22.4688 0.0000
v 0.5000 21.1875 5.2500
v 5.1667 21.1875 5.2500
v 5.1667 22.4688 5.2500
v 0.5000 22.4688 5.2500
f 1049 1052 1051 1050
f 1053 1054 1055 1056
f 1049 1050 1054 1053
f 1050 1051 1055 1054
f 1051 1052 1056 1055
f 1052 1049 1053 1056
o proof_unit_stair_07
usemtl metal
v 0.5000 22.4688 0.0000
v 5.1667 22.4688 0.0000
v 5.1667 23.7500 0.0000
v 0.5000 23.7500 0.0000
v 0.5000 22.4688 6.0000
v 5.1667 22.4688 6.0000
v 5.1667 23.7500 6.0000
v 0.5000 23.7500 6.0000
f 1057 1060 1059 1058
f 1061 1062 1063 1064
f 1057 1058 1062 1061
f 1058 1059 1063 1062
f 1059 1060 1064 1063
f 1060 1057 1061 1064
o proof_unit_stair_08
usemtl metal
v 0.5000 23.7500 0.0000
v 5.1667 23.7500 0.0000
v 5.1667 25.0312 0.0000
v 0.5000 25.0312 0.0000
v 0.5000 23.7500 6.7500
v 5.1667 23.7500 6.7500
v 5.1667 25.0312 6.7500
v 0.5000 25.0312 6.7500
f 1065 1068 1067 1066
f 1069 1070 1071 1072
f 1065 1066 1070 1069
f 1066 1067 1071 1070
f 1067 1068 1072 1071
f 1068 1065 1069 1072
o proof_unit_stair_09
usemtl metal
v 0.5000 25.0312 0.0000
v 5.1667 25.0312 0.0000
v 5.1667 26.3125 0.0000
v 0.5000 26.3125 0.0000
v 0.5000 25.0312 7.5000
v 5.1667 25.0312 7.5000
v 5.1667 26.3125 7.5000
v 0.5000 26.3125 7.5000
f 1073 1076 1075 1074
f 1077 1078 1079 1080
f 1073 1074 1078 1077
f 1074 1075 1079 1078
f 1075 1076 1080 1079
f 1076 1073 1077 1080
o proof_unit_stair_10
usemtl metal
v 0.5000 26.3125 0.0000
v 5.1667 26.3125 0.0000
v 5.1667 27.5938 0.0000
v 0.5000 27.5938 0.0000
v 0.5000 26.3125 8.2500
v 5.1667 26.3125 8.2500
v 5.1667 27.5938 8.2500
v 0.5000 27.5938 8.2500
f 1081 1084 1083 1082
f 1085 1086 1087 1088
f 1081 1082 1086 1085
f 1082 1083 1087 1086
f 1083 1084 1088 1087
f 1084 1081 1085 1088
o proof_unit_stair_11
usemtl metal
v 0.5000 27.5938 0.0000
v 5.1667 27.5938 0.0000
v 5.1667 28.8750 0.0000
v 0.5000 28.8750 0.0000
v 0.5000 27.5938 9.0000
v 5.1667 27.5938 9.0000
v 5.1667 28.8750 9.0000
v 0.5000 28.8750 9.0000
f 1089 1092 1091 1090
f 1093 1094 1095 1096
f 1089 1090 1094 1093
f 1090 1091 1095 1094
f 1091 1092 1096 1095
f 1092 1089 1093 1096
o proof_unit_stair_12
usemtl metal
v 0.5000 28.8750 0.0000
v 5.1667 28.8750 0.0000
v 5.1667 30.1562 0.0000
v 0.5000 30.1562 0.0000
v 0.5000 28.8750 9.7500
v 5.1667 28.8750 9.7500
v 5.1667 30.1562 9.7500
v 0.5000 30.1562 9.7500
f 1097 1100 1099 1098
f 1101 1102 1103 1104
f 1097 1098 1102 1101
f 1098 1099 1103 1102
f 1099 1100 1104 1103
f 1100 1097 1101 1104
o proof_unit_stair_13
usemtl metal
v 0.5000 30.1562 0.0000
v 5.1667 30.1562 0.0000
v 5.1667 31.4375 0.0000
v 0.5000 31.4375 0.0000
v 0.5000 30.1562 10.5000
v 5.1667 30.1562 10.5000
v 5.1667 31.4375 10.5000
v 0.5000 31.4375 10.5000
f 1105 1108 1107 1106
f 1109 1110 1111 1112
f 1105 1106 1110 1109
f 1106 1107 1111 1110
f 1107 1108 1112 1111
f 1108 1105 1109 1112
o proof_unit_stair_14
usemtl metal
v 0.5000 31.4375 0.0000
v 5.1667 31.4375 0.0000
v 5.1667 32.7188 0.0000
v 0.5000 32.7188 0.0000
v 0.5000 31.4375 11.2500
v 5.1667 31.4375 11.2500
v 5.1667 32.7188 11.2500
v 0.5000 32.7188 11.2500
f 1113 1116 1115 1114
f 1117 1118 1119 1120
f 1113 1114 1118 1117
f 1114 1115 1119 1118
f 1115 1116 1120 1119
f 1116 1113 1117 1120
o proof_unit_stair_15
usemtl metal
v 0.5000 32.7188 0.0000
v 5.1667 32.7188 0.0000
v 5.1667 34.0000 0.0000
v 0.5000 34.0000 0.0000
v 0.5000 32.7188 12.0000
v 5.1667 32.7188 12.0000
v 5.1667 34.0000 12.0000
v 0.5000 34.0000 12.0000
f 1121 1124 1123 1122
f 1125 1126 1127 1128
f 1121 1122 1126 1125
f 1122 1123 1127 1126
f 1123 1124 1128 1127
f 1124 1121 1125 1128
o proof_unit_restroom_side
usemtl interior_white
v 10.2500 40.1667 0.0000
v 10.5000 40.1667 0.0000
v 10.5000 49.5000 0.0000
v 10.2500 49.5000 0.0000
v 10.2500 40.1667 9.0000
v 10.5000 40.1667 9.0000
v 10.5000 49.5000 9.0000
v 10.2500 49.5000 9.0000
f 1129 1132 1131 1130
f 1133 1134 1135 1136
f 1129 1130 1134 1133
f 1130 1131 1135 1134
f 1131 1132 1136 1135
f 1132 1129 1133 1136
o proof_unit_restroom_front_left
usemtl interior_white
v 0.5000 40.1667 0.0000
v 3.0000 40.1667 0.0000
v 3.0000 40.4167 0.0000
v 0.5000 40.4167 0.0000
v 0.5000 40.1667 9.0000
v 3.0000 40.1667 9.0000
v 3.0000 40.4167 9.0000
v 0.5000 40.4167 9.0000
f 1137 1140 1139 1138
f 1141 1142 1143 1144
f 1137 1138 1142 1141
f 1138 1139 1143 1142
f 1139 1140 1144 1143
f 1140 1137 1141 1144
o proof_unit_restroom_front_right
usemtl interior_white
v 6.2000 40.1667 0.0000
v 10.5000 40.1667 0.0000
v 10.5000 40.4167 0.0000
v 6.2000 40.4167 0.0000
v 6.2000 40.1667 9.0000
v 10.5000 40.1667 9.0000
v 10.5000 40.4167 9.0000
v 6.2000 40.4167 9.0000
f 1145 1148 1147 1146
f 1149 1150 1151 1152
f 1145 1146 1150 1149
f 1146 1147 1151 1150
f 1147 1148 1152 1151
f 1148 1145 1149 1152
o proof_unit_restroom_door
usemtl charcoal
v 3.0000 40.0867 0.1500
v 6.2000 40.0867 0.1500
v 6.2000 40.2467 0.1500
v 3.0000 40.2467 0.1500
v 3.0000 40.0867 7.8000
v 6.2000 40.0867 7.8000
v 6.2000 40.2467 7.8000
v 3.0000 40.2467 7.8000
f 1153 1156 1155 1154
f 1157 1158 1159 1160
f 1153 1154 1158 1157
f 1154 1155 1159 1158
f 1155 1156 1160 1159
f 1156 1153 1157 1160
o proof_unit_roof_beam_0
usemtl metal
v 0.5000 7.0000 20.7000
v 27.5000 7.0000 20.7000
v 27.5000 7.2500 20.7000
v 0.5000 7.2500 20.7000
v 0.5000 7.0000 21.0500
v 27.5000 7.0000 21.0500
v 27.5000 7.2500 21.0500
v 0.5000 7.2500 21.0500
f 1161 1164 1163 1162
f 1165 1166 1167 1168
f 1161 1162 1166 1165
f 1162 1163 1167 1166
f 1163 1164 1168 1167
f 1164 1161 1165 1168
o proof_unit_roof_beam_1
usemtl metal
v 0.5000 17.0000 20.7000
v 27.5000 17.0000 20.7000
v 27.5000 17.2500 20.7000
v 0.5000 17.2500 20.7000
v 0.5000 17.0000 21.0500
v 27.5000 17.0000 21.0500
v 27.5000 17.2500 21.0500
v 0.5000 17.2500 21.0500
f 1169 1172 1171 1170
f 1173 1174 1175 1176
f 1169 1170 1174 1173
f 1170 1171 1175 1174
f 1171 1172 1176 1175
f 1172 1169 1173 1176
o proof_unit_roof_beam_2
usemtl metal
v 0.5000 27.0000 20.7000
v 27.5000 27.0000 20.7000
v 27.5000 27.2500 20.7000
v 0.5000 27.2500 20.7000
v 0.5000 27.0000 21.0500
v 27.5000 27.0000 21.0500
v 27.5000 27.2500 21.0500
v 0.5000 27.2500 21.0500
f 1177 1180 1179 1178
f 1181 1182 1183 1184
f 1177 1178 1182 1181
f 1178 1179 1183 1182
f 1179 1180 1184 1183
f 1180 1177 1181 1184
o proof_unit_roof_beam_3
usemtl metal
v 0.5000 37.0000 20.7000
v 27.5000 37.0000 20.7000
v 27.5000 37.2500 20.7000
v 0.5000 37.2500 20.7000
v 0.5000 37.0000 21.0500
v 27.5000 37.0000 21.0500
v 27.5000 37.2500 21.0500
v 0.5000 37.2500 21.0500
f 1185 1188 1187 1186
f 1189 1190 1191 1192
f 1185 1186 1190 1189
f 1186 1187 1191 1190
f 1187 1188 1192 1191
f 1188 1185 1189 1192
o proof_unit_roof_beam_4
usemtl metal
v 0.5000 47.0000 20.7000
v 27.5000 47.0000 20.7000
v 27.5000 47.2500 20.7000
v 0.5000 47.2500 20.7000
v 0.5000 47.0000 21.0500
v 27.5000 47.0000 21.0500
v 27.5000 47.2500 21.0500
v 0.5000 47.2500 21.0500
f 1193 1196 1195 1194
f 1197 1198 1199 1200
f 1193 1194 1198 1197
f 1194 1195 1199 1198
f 1195 1196 1200 1199
f 1196 1193 1197 1200
